/* XPM */
static char *_579134092269[] = {
/* columns rows colors chars-per-pixel */
"64 64 256 2 ",
"   c #2D2F69",
".  c #4D507C",
"X  c #605A7E",
"o  c #35318B",
"O  c #535687",
"+  c #4A4896",
"@  c #5A5D99",
"#  c #4E4C88",
"$  c #5C6588",
"%  c #58659C",
"&  c #5F7298",
"*  c #67699A",
"=  c #6A7696",
"-  c #747697",
";  c #6D6F8F",
":  c #5759A6",
">  c #5150AE",
",  c #6669A7",
"<  c #6A76A8",
"1  c #7679A8",
"2  c #7B7CBB",
"3  c #777BB4",
"4  c #6B6EB8",
"5  c #6065B2",
"6  c #6872C9",
"7  c #7C7AC5",
"8  c #716FCC",
"9  c #585DC8",
"0  c #817B9B",
"q  c #837DB7",
"w  c #867DAC",
"e  c #807BDF",
"r  c #7A819C",
"t  c #7A84A8",
"y  c #7A87B7",
"u  c #7B85C6",
"i  c #7C8AD1",
"p  c #7B80E6",
"a  c #85869A",
"s  c #96989A",
"d  c #89919C",
"f  c #8285AB",
"g  c #878BA7",
"h  c #8A95AA",
"j  c #9B9CAC",
"k  c #9597A7",
"l  c #8384B4",
"z  c #848BB5",
"x  c #8589BC",
"c  c #8B8EBC",
"v  c #8788B8",
"b  c #938DB5",
"n  c #8C93BB",
"m  c #8996B6",
"M  c #959BB3",
"N  c #9B9BB3",
"B  c #9393BB",
"V  c #9B9CBC",
"C  c #9698B9",
"Z  c #968FAE",
"A  c #A39AB7",
"S  c #A19DAE",
"D  c #9DA3B4",
"F  c #99A3BA",
"G  c #9BA1AF",
"H  c #A3A4BC",
"J  c #A4ABBD",
"K  c #A9A8B8",
"L  c #ABAEB6",
"P  c #9CA39C",
"I  c #8787C5",
"U  c #9489C3",
"Y  c #8B96C5",
"T  c #9A95C4",
"R  c #959BC4",
"E  c #9A9BC3",
"W  c #949CCB",
"Q  c #9D9CCB",
"!  c #9494C4",
"~  c #8889D3",
"^  c #918FD7",
"/  c #8D98D5",
"(  c #9799D7",
")  c #A59CCA",
"_  c #AD9BD7",
"`  c #9CA3C3",
"'  c #9DA3CB",
"]  c #98A8C7",
"[  c #99A5D6",
"{  c #9DB2DA",
"}  c #8EA3D0",
"|  c #A4A4C4",
" . c #A5A9C4",
".. c #ABACC3",
"X. c #A4A4CA",
"o. c #A4AACB",
"O. c #ADADCB",
"+. c #ABA4C7",
"@. c #B1ACC8",
"#. c #ADB3C4",
"$. c #ACB3CD",
"%. c #A5B6CA",
"&. c #B4B4CB",
"*. c #B3BBCC",
"=. c #BBBCCC",
"-. c #B7B8C6",
";. c #A4ABD4",
":. c #ADACD3",
">. c #A2A5DD",
",. c #A4AADA",
"<. c #A8A5D6",
"1. c #B4ACDC",
"2. c #B2ADD4",
"3. c #ACB4D3",
"4. c #ACB2DC",
"5. c #A9B8D7",
"6. c #B3B5D3",
"7. c #B6BBD4",
"8. c #BABCD3",
"9. c #B4B4DB",
"0. c #B4BADC",
"q. c #BABCDC",
"w. c #B9B5D6",
"e. c #8C88E1",
"r. c #8C96E6",
"t. c #9798E4",
"y. c #9697EF",
"u. c #A59FF4",
"i. c #9AA5E6",
"p. c #9FAEFF",
"a. c #ABACE4",
"s. c #A5A7E5",
"d. c #B5ACE6",
"f. c #ABB3E3",
"g. c #ACBBE4",
"h. c #A7B6EA",
"j. c #B3B4E4",
"k. c #B2BAE3",
"l. c #BBBDE4",
"z. c #B4BCEC",
"x. c #BBBDEC",
"c. c #B8B4E8",
"v. c #BCBDFE",
"b. c #B7B9F6",
"n. c #ACB2F7",
"m. c #C2BFDB",
"M. c #C1BCCD",
"N. c #C2BDE9",
"B. c #C2BEF8",
"V. c #BBC2CD",
"C. c #B6C3CB",
"Z. c #BBC2D4",
"A. c #BDC4DC",
"S. c #B7C5D9",
"D. c #AEC3EC",
"F. c #BCC3E3",
"G. c #BCCBE4",
"H. c #BCC2EB",
"J. c #B5C4E9",
"K. c #BCC4F4",
"L. c #BDC2FC",
"P. c #B8C7F8",
"I. c #BED1F9",
"U. c #C7C6CA",
"Y. c #C2C4D4",
"T. c #C4CAD5",
"R. c #CBCBD4",
"E. c #C2C4DB",
"W. c #C4CCDC",
"Q. c #CBCCDC",
"!. c #C9C6DA",
"~. c #D0CFDE",
"^. c #CDD1DD",
"/. c #C6D4D9",
"(. c #D6D6DB",
"). c #D8E4DC",
"_. c #C2C5E3",
"`. c #C5CBE3",
"'. c #CACCE3",
"]. c #C3C5EC",
"[. c #C4CBEB",
"{. c #CBCCED",
"}. c #CBC6E8",
"|. c #D1CEE9",
" X c #CCD3E3",
".X c #CDD3EC",
"XX c #C5D5E9",
"oX c #D4D5E5",
"OX c #DBDCE3",
"+X c #D4D4EA",
"@X c #D4DBEB",
"#X c #DBDCEB",
"$X c #D5D8E8",
"%X c #C2C4F3",
"&X c #C4CBF3",
"*X c #C5CCFE",
"=X c #CBCDFD",
"-X c #C9C7F9",
";X c #D2CEFE",
":X c #D2CCF6",
">X c #C4D3F5",
",X c #CCD2F3",
"<X c #CCDAF6",
"1X c #CDD4FD",
"2X c #CDDBFF",
"3X c #C4D7FF",
"4X c #D2D5F4",
"5X c #D4DBF5",
"6X c #DADCF4",
"7X c #D3D4FE",
"8X c #D9D5FE",
"9X c #D4DBFE",
"0X c #DBDCFE",
"qX c #DAD6F4",
"wX c #E1DEEB",
"eX c #E2DDFD",
"rX c #E1D8F9",
"tX c #E0CEFF",
"yX c #DDE2ED",
"uX c #DDE7E8",
"iX c #CEE2FF",
"pX c #C4E0FF",
"aX c #DDE3F5",
"sX c #D4E2FF",
"dX c #DCE3FF",
"fX c #DCEAFF",
"gX c #D4E6F8",
"hX c #DCF2FD",
"jX c #DBF5EC",
"kX c #E5E8E9",
"lX c #E9F3EB",
"zX c #F6FAED",
"xX c #E2E4F4",
"cX c #E4EBF5",
"vX c #EAEBF4",
"bX c #E3E4FE",
"nX c #EAE5FE",
"mX c #E4EBFE",
"MX c #EBEDFE",
"NX c #E9E4F4",
"BX c #F3EDFF",
"VX c #F5EEF9",
"CX c #EEF3F5",
"ZX c #E5F3FE",
"AX c #ECF3FF",
"SX c #E5FBFF",
"DX c #EDFCFF",
"FX c #E9F6F6",
"GX c #FBFDF6",
"HX c #F3F4FF",
"JX c #FAF6FF",
"KX c #F5FCFF",
"LX c #FBFDFF",
"PX c #F3F5F5",
"IX c #F2EFEA",
"UX c #E1E4DD",
/* pixels */
"KXKXKXQ.A.HXKX&X4.KXsXt { hXpX{ [ ( W 9XAXq.w.LXLXLXAXKX XS.DXfX~ L.f.1XAX<XDXZX*.SXLXzXLXLX1.8X0X4 I h.h.< I.SX<X%.S.L KXGXzXGX",
"LXcXLXAX..,XKX:.mXDXDX{ } } hXP.Y f.x mXKX` @XHXAXLXLXaXS.[.KXo.f.*XJ.K.4.I.<X[.gXKXKXCXLXGXJXc.* 9XmXy y sXm D.S.G.C.FXLXkXGXGX",
"KXKX*.@XAX7.5XF.&XmXDXg.& { { D.Y 9X&X' o..XLXLXLXAXKXW.Z.KXF 5XKXS.,X,.a.z.sX<XKXHXLXLXLXLXkXs z z.2XdXY P.] $ %.G.SXLXLXLXLXkX",
"KXW.gXKX.XZ.,XHX0.,X&XJ.gXy } } g.KXLX` V MXLXKXLXHXW.7.AX3.,XKXKXLX9Xk.x sXMXDXLXDXHXLXLX#Xs -.LXj.z -XZXH.<XJ.t m KXLXcXLXLXLX",
"XXgXKXKXC.M KXKXDXF C KXSXD.O D.KXKX[.dX6X#.mXLXMX$X8.mX..<XKXDXKXDXMX&X1X`  XKXLXDXCXLXBXA M.BXqXN.q.b MXKXmXKX>X- q.DXLXDXLXLX",
"KXS.SXXXh ZXLXAXAX7.o.{.2Xf.*XY AX<X.XKXHXE.Y.#X Xk HX7..XKXDXKXLXKX[.LXLX`.D ).KXGXKXLXnX0 BXBXA }.BXqX:.qXLXHXLXr $.7.KXLXKXmX",
"DXDXF h FXKXKXAXAX$X'.[.X.KXdXW ` #.KXLXLXLXT.L Y.xXJ '.KXKXAXLXdXbXKXaXLXKX Xk HXPXLXLXBX_ d._ rXJXBXJX}.A bXHX .| LX_.S.AXLXKX",
"5.G.S.ZXKXcXKXLXLXY.N bXLX7X<.<.`.Z.W.AXLXDXLXLXLXLX8.Y.KXLXKXMX{.E cXKXHXDXq.XXHXHXJXLXVXJX# q JXJXJXJXJX|.+.| ` HXHXKXF.q.HX0.",
"] = FXDXKXKXAXLXkX^.BXK {.E Q bXLXZXY.#.LXLXLXJXHXJXLXE.&.mXKXq.KXMXZ.$XLX[.( v.d.N.MXJXnX+.tX) S JXBXJXJXJXA O MXLXAX0.0X4.B 0.",
"I.fXM gXKXLXLXCXC.LXJXJX0 }.MXLXZXLXcXQ.-.AXBXrX!.LXHXMXA.`.7.5XMXLXAX$.;.>.^ ^ bX8X1.JXA rXJXJXK Z JXJXVX+.w rX:.8XQ bX&Xo.;.g.",
"KXfXfXJ yXKXLXLXUXR.LX-.+.bXMXLXLXKXLXMX=.@XxXwXJX+XMXLXLXa r 7.@XLXLXx.I 2 b.LXx.0XbX1.1.:XJXJXJXA S BXZ A JXnXB 1.LX%X1 R 9XDX",
"KXDXKXmXD DXLXLXJXvX-.K HXLXHXJXKXAXKXLXMXL '.JXGXqXqXLX'.` Z h 7.5X*X^ ~ L.HXKXKX}.0XnXU <.rXJXBXLXM.Z ) JXN.* T JX1.* c k.k.sX",
"KXKXLXcXK JXLXJXJXLXMXL vXHXLXLXKXHXKXmXrXg K JXBXBXbX!.J bXmX` B c ^ t.b.sXKXZXLXKXA.MX1.;X) eXLXLXJXrXJX1.w 0 rX! %Xj.DXH.g.4.",
"LXAXKX#.'.wXnXLXJXJXLXvXk LXuXLXMXLXaX8.@.M.@.+XeXeX|.N bXLXLX5X4.x ~ L.*XK.sXKXDX@X'.E.|.LXBXZ nXHXLXJXN.- eXN.# 1.JX=XY KXm 1 ",
"OXLXL $XoX|.BXBXLXJXLXJXvXL CXCXKXKX8...!.JXqXm.qX}.+.MXLXLXmXKXdX2X0.] ;.K.b.,.dX5XD /.LXLXLXMXg mXHX! * eXJXd.T Q x.LX1XR J.z ",
"KXh  X'.HXLXNXwXJXJXLXLXGXuXL vXHXw.6.'.JXLXLXwX@.H nXLXLXMXLXLX.X5X.X0.4.,.[ t.3 3.Q.KXGXvXLXJXbXX.f b 2.9.JXw.c.d.Q -XdXx I { ",
"] h 0XmXxXLXyX(.LXLXGXGXLXLXOXK w.) }.JXLXLXLXwXd ~.GXLXJXLXJX#XkXVXJXrX2.) :XN.'.P GXlXLXLXmXLXLXq.- mXLX'.&.LX..q.0.f x KX, , ",
"z DXsXG.cXOXOXLXGXIXGXLXJXLXLX!.b }.JXLXLXLXLXvXS ~.HXJXJXLXLXkXU.LXwXnXrXb nXLX#XR.GXLXCXLXLXAX5Xr HXGXLXLXBXK LXq.l.7Xd.^ s.L.",
"ZX2XKXKX4XHXLXIXGXLXJXVXGXGXLXLXm.nXJXBXLXLXHXMXA m.nXLXLXLXLXLXwXR.(.|.1.c.nX&.Y.LXyXLXLXLXoXq.N.9.0.MXJXBXnXBX&.LX+.n 1 *XKX*X",
"fX>XKXmX[.LXLXGXGXzXJXLXIXLXLXLXLX=.#XLXJXBXeXA B :.8XHXLXLXGXLXJXJXNX-.}.JXnX+X|.LXLXHXLX-.Z.0.c bX;Xc.LXJXLXeX:XbXw.f 1 KXdX3X",
";.sX,XS.M ..LXLXVXLXLXLXLXLXLXLXJXLXR.~.LX|.b N.;X1._ }.JXLXGXPXGXBX+.!.BXHXLXJXLXHXLXLX6.8.HXcX! 3 ;X;Xc.JXHX2.8X_. .LXAX] KXXX",
"1XmXn B bXV.H BXLXLXLXLXvXBXLXLXLXLXJXoXH +.;XBXBX-X_ +.'.HXGXLXJX2.N.JXHXoXBXBXLXeX|.}.` HXLXyXLXd.I BXc.d.) nXl.X.bXKXHXcXZ./.",
"KXt l 1XKXKX8.+.LXxXLXPXS 8.LXuXvXGXLXoX&.|.BXLXJXnX-X+.@.Q.vXJXT N.GXMXM.&.a +X:XB.b.q MXHXLX'.AXLX<.l c.* w ) :XMXbXHXKXDXL /.",
"- t t ,XHXHXLX3.V LXxXj +X&.k LXLXLX|.A #XLXLXLXJXJX8X:.+.w.=.H B.JXBXY.H JXLXZ 2.8Xs.nXq.LXHXLX{.0XHXT 1 rXBX) 4XHXdX@XaX/.KXjX",
"t `.KXO.1XAXHXLX6.X.C ,XHXLXT.N BXnXN bXLXHXLXLXLX}.eXLXw.O.:X0XLXJXc. .LXCX5X{.U I ;XnXeXq.LXLXHX5X_.+XqX2.JXLX6.}.HXAX XKXFXC.",
"dXLXAXKX<.a.,XKXmX; %XmXLXLXNX'.B _ 8XLXLXLXLXvX(.wXLXBXnX2.{.BXBX1.v l.xXLXN JX=X* eXMX8XnX#.LXHX5X=.LX!.E.MXLXLXE..XAXLXZX$.S.",
"V HXMX,X7X>.z.1Xt z 0XKXKXDXLXLXd.w BXJXGXGXGX(.kXJXBXLXBX}.<.MXbXl dXmX_.bXl.bXBXQ , AXnX'.xXLX'.G LXMXj xXLXJXLXHX8.Z.LX$.$.SX",
"E.M HX7XMXmX*XO * HX*X_.HXLXDXAXJXv ) JXHXGX(.UXLXVXLXMXrX2.8X7XH.1 LXKXKX4.AXl.BX1.1 j.w.mXMXeX7.LX@XD kX#XLXLXLXKXLXE.F S.KXKX",
"LX_.Q LX{.KX< + ~ dXmX3.l.LXAXLXnXT +.m.JX(.kXCXvXLXJX#XZ nXLXBX.XC 1 ,XKX-XMXLXQ ' _.Z V LXJXeXN.nXE 6XLXLXJXLXLXHXLXJ g ZX,XfX",
"MXLX-XW bX$ % ~ u < dXKX].0.LXHXA :XBX&.$X-.JXLXLXHX+XH MXJXLXGXyX.XQ c ,.LXLX9XE _.!. X}.9.JXJXx.@ MXJXC 6XHXLXPXHXY.$.| k.z.1X",
"'.LXJXbX1 , t.b.i.3 / KXmXJ cXk @.LXBXLXK Q.!.LXLX4XA xXLXLXkXlXC.G.HXK.s.0X8Xc KXMXMXLXBXO.N.tXu.n.B.U T a =.LXLX^.=.DX .m HX*X",
"}._.LX{.l h.bXdXn.z.3 t 7.W.H E.LXHXLXLXBXL +.4X|.O.0XLXHXHXLXV.$XF m bXK.3 v AXHXLXLXLXLXMX;X( 8 e.+ I LXMX- =.T.E.mXo.9X1Xc 9X",
"R 9X9X= $.mXLXKX7Xl.B . t | S.LXLXLXKXPXGXMX .$.F dXKXKXKXSXS.G.G S.aX- :.LXF W.HXKXAXKXKXLX8X^ u.5 > q %XKX].$ B AX].R KXsXF z ",
"y } $ 3.AXKXcXKXLX+X,X:.9.,XHXLXKXGXGXPXvXKXLX0X9X9XfXg.I.I.hXt S.fXmX3.F g KX X XHXLXHXLX=XI U 5 e.nX: % 4.%XH.1 f.DXW ;.].KXg ",
"3XR = mXKXKXLXHXAXLX0Xl.o.KXHXKXLXGXLXLXLXHXDXLXKX,X5.0.%.I.y { <XAX3.KX.Xr 5XAXZ.+XKXLX0Xq I @ ( b.7XLX1 x 7X9XfXl H.1X1 3.] G.",
"KXDX] F KXAXHXLXLXHX_.g ,XHXKXAXLXLXPXLXLXyX XKXaXG.G.>XiXt r >X9X5.k.9X1XKXm `.W.@XKX4XQ 3 I e HXfX' 7XDX1 Y mXKXdXz ` <X&X,XHX",
"AXZX0.` *.DXLXLXLX@.C MXmXmXdXaXLXKXGXvX~.AXKXA.q.fXdXdX] t pX%.D.hXg.} 4.2XDX=  .DXAX- v B., ;XbXmXHXk.*Xd.l -XbXfX .r 9XKX0XLX",
"fX;.KXKXJ #.LXmX&.M eXLXLX .'.+XOXLXLXkXyXKXMX7.G.fXZX5.= hXDXI.J.D.P.g.h.J.5.q.g KXF - :XBXb.) $. XKXbX2 9X=Xq 1Xq.r KXS.` %X1X",
",.&XKXHXHXG #.M.d bXHXLX{.&.Z.@X=.kX#XxXLXaX*.aXZX5.ZXh F gXSXSXP.[ / pXfXP.z I.` HX; V JXJXJXB L /.6.[ n.e.-X1 k.g mXKX'.3.7X%X",
"Y fX0.DXLXLXY.K JXHX0X6X .E.KXaXE.U.~.HXHX'.@XLXZX0.7.SXh m DXiXpXu h.h.3XSXhX. <XAXJ - eXJXBXJXD M ' MX-Xe.e e 1 ,XKX@X XLX0Xz.",
"*X1XF...KXLXLXLXJXLXJX'.N BXLXLXR.=.xX$XBX*.aXLX.X5.XXZXsX] F gXpXy i D.h.I.y ] DXKXKXg - eXBXJXHX- s.rXn.> 5 e bX0XZXKXT.AXMX4.",
"dX9XKX7.#.LXLXMXLXJX#X&.LXY.MXoX#X#X!.BXQ.aXA.$.KX[.G.fXKX3XY } D.h.h.D./ < } KXKXKXgXHXN $ BXJX9.BX^ ~ 8 8 e.B.MXAXLXcXDXM f l ",
"* mXAX{.Z.HXLXKXLXwX!.LXMXHX^.vXLXJXHX8.LX'.E.[.9XKXk.ZXKXfXiX< t hXhX& % x 2XsX`.KXHXHXBXg ; 8X0XnXtX+ o y.v.=Xx._.HXLXoX.X0XF.",
"< 1 {.F LXHXHXLXLX=.NXLXLXLXAXLXJXLXJXq.+XKXLXsXq.dXJ.y 2XsXy D.D.{ } u K.9Xf.o.`.Z.LXKXLXBXg 1 j.I 5 _ BX:Xb.<.E F J *.Z.HXbX9.",
"LXt $ KXAXLXOXLXLXLXM.oXLXLXLXHXLXBXqXE.LXLXLXKX4Xt R Y y / h.ZXD.& t ZXKX*X] 9XZXZ. XLXKXLXMXB * * T JX0X].0.| eXLX8.; LX0X9.:X",
"KX%X| '.LXHXLXLXLXLXBXM.vXvXLXKXLXrX'.HXMXMXmXKX4.n ,.fX, @ DXP.n J.].mXH.1XbX.X+XKXT.V.LXLXHXKX].BXbXO.W.OXk ^.KXLXHXB B E bXJX",
"<.1XKXO.-.LXvXLXJXBXLXLXL LXvXLXNX&.LXm.| O.LXC ;.AXKX3Xn.i : / 2XHX,XX.0.HXMX$.aXLXKXT. XLXKXLXLXLXJXAXkXs kXLXLXHXLX0XO l JXHX",
"0XHXLXLXL wXLXLXJXLXLXvXLXR.wXxX8.HXl.q.HX].- ;.KXKXmXZXDXh.% [ KXKXLXE 9.7Xq.mXKXAXKXAXY.cXGXHXLXHXLXkXP ).GXLXHXLXBX3.MXI c %X",
"LXBXLXwX-.JXHXLXLXLXDXKXLXaXZ.W.LX9.x.MX-Xt.W a.7X0XHXKXL.g.dX- x.BXHXHXI x 7XKXKXKX5XW.kXLXLXJXBXLXHXS R.GXPXKXyXDXDXo.<XHXt 5.",
"BXBXBXS #XJXHXGXCXLXLXLXHXKXLXKXx.Q ^ 7 ( : MX/ 1 ( dX7Xz.HXAXfX# s.0XKXa.>.,.HXKXMX@X#XLXLXJXLXLXvXLXOXj uXLX$XKXW.KXKXm ] ] SX",
"LXHXS nXBXLXLXKXLXR.^.KXLXKXKXMXt.e 5 I 0XI + -X-Xs.[ v.L.AXKX( # T , U HXAX< bXMX6.#XLXJXBXLXGXLXHXLXLXV.L T.LXHXDX.XKX9X$ 5.KX",
"rXA #XJXGXAXKXLXV.Z.A.[.,XZXAX3Xo e HX0X2 a.+ ~ v.9XHXI ( 7Xu.> eX0X7X3 dXH.x.J.! 5XHXMXLXJXLXJXJXLXLXLXLX-.k vXLXKXmXZ.M DX3.$.",
"+.MXBXAXLXLXFXW.$.KXDXF ] fXG.< 6 u.HXLX( , 7X+ + bXJXMX>.7 o 8XJXLXMXbX. s.bX` F.0.7XLXKXHXJXJXHXLXKXLXLXLX/.d uX^.$XN  XLXMX_.",
"}.0XLXLXmXKX*.A.KXKXsX>X3X,.< , HXL.W bXa.0X+ n.^ 8 bXHX>.  n.0XHXLXdX&Xx.v l.dXKXmX9.{.LX(.K HXLXLXLXLXHXLXLX-.k U.- LXLXPXLXMX",
"=.#.,XmX{.t fXDXDXS.<XDXpX% % iXXXLX9X,.( ( n.~ =X4 ~ s.  5XKXM [.KXH.l.7Xt . 9XKXLXMX$.F 0XMX8.xXAXxXHXLXAXLXLXR.-.JXLXMXLXMXJ ",
"LXZXM g.z.,.*XKXgXXXhXSX5.u i.L./.).ZX9Xa.y v.1X( 7X,   7XKXLXLXA.V -XAXg dX].; MXKXHXG.o.9XLXHXD Z.Z.yXLXLXKXCXKXLXHXHXLXnXj MX",
"DXjX0.f.s.7X*XJ.gXFXDXDX5.u p.i ZXlXG.DXKXHXv.2 s.[ 7 q dXLXzXLXKXHXMXt 4XKX7X- 9.HXAXE.AX4..XfXk aXcXZ.yXKXKXLXLXLXvXLXHXg BXLX",
"lXT.KXAXi.r.*X[ XXDXjXSXSXi.u r.>XSXgX&XdXKX*X% O I bX7Xf dXKXxXKXMXE F.LX9X$ .X,X0.KXdX_.KXm M G.KXKXAXL cXLXKXAXvXLXxXj DXLXHX",
"/./.KXdXHXt.i.g.hXjXDXDXiXi.6 p r.9XhXiXDXf., ( n.HXAXLX0X- 8XLXMXk.h LX7XB HXKXAX4X%XAXgX`.= 5.KXLXKXHXKXd h KXKXLXDXH bXcXLXLX",
"KX/.&XKXs.*Xh.c XXKXDXSX{ } pXp p p *XI.z.Y I I B.MXLXLXBX0X2 +X=X7XbXC v ].HXAXKXLXF.sXsX- 5.DXKXLXAXLX*.V.D J DXKXLXA.$.KXDXdX",
"G.LX&XR K.<X5.G.F pXhXy y hXI.i 9 9 r.4 1 < ( DX-XC LXDXHXJX7Xe 4.KX7X1  .KXHXLXKXKXLX$.` g.KXKXKXKXKXJ /.HXLXG h DXDXKXF.F.sXJ.",
"7X;.H.` gXS.KXDXXXF ] y %.D.} hXn.> > u 3 f.KXHXLXDXM LXGXMXJXN.1 ` 3 j.+X .LXJXLXKXmXh n SXDXSXKXDX*.$XKXKXyXXX/. .KXSXSX] & fX",
"MX( E KXV.FXKXSXSXD.y P.pXt XXhXP.v./ u / sXKXKXmXLXoXD LXLXIXKXS.y H.9XKX:.7.HXDXMXF 5.<X<XfXSXKX-.oXKXKXfXDXZ.DXG.C.hXS.I.D.D.",
"t.-XJ.*.KXGXjXDX<X} n.} D.hX%.F ZXL.u h.n.P.fXKXLXKXLX$XK kXGXGXLXx.F.AX;XLXq.8.mX . .DXhXC.iXSXKXW.W.LXKX XW.SXZXSX%.D.P.gXSXD."
};
