/* XPM */
static char *_579135584124[] = {
/* columns rows colors chars-per-pixel */
"64 64 245 2 ",
"   c #000603",
".  c #030C05",
"X  c #0C050B",
"o  c #020C0B",
"O  c #0C0D0D",
"+  c #090707",
"@  c #120D07",
"#  c #140D0D",
"$  c #1A0C0D",
"%  c #15040B",
"&  c #011306",
"*  c #04140D",
"=  c #0C120D",
"-  c #021A0C",
";  c #081608",
":  c #11110D",
">  c #18110A",
",  c #0D0E11",
"<  c #070D12",
"1  c #130E11",
"2  c #1A0C11",
"3  c #190815",
"4  c #041512",
"5  c #0E1111",
"6  c #011A13",
"7  c #0C1A15",
"8  c #0D1519",
"9  c #041B1A",
"0  c #0C1B1B",
"q  c #04161A",
"w  c #111112",
"e  c #1A1214",
"r  c #131A15",
"t  c #13141A",
"y  c #1B141A",
"u  c #131B1C",
"i  c #1B1B1D",
"p  c #181816",
"a  c #21080F",
"s  c #260C18",
"d  c #24141B",
"f  c #04221A",
"g  c #0D221C",
"h  c #04261A",
"j  c #12221D",
"k  c #16231B",
"l  c #00200F",
"z  c #041C23",
"x  c #0B1C24",
"c  c #131D21",
"v  c #1B1C24",
"b  c #1B1726",
"n  c #180F20",
"m  c #270F22",
"M  c #241324",
"N  c #281928",
"B  c #331429",
"V  c #391833",
"C  c #281B31",
"Z  c #032421",
"A  c #0C2222",
"S  c #022C24",
"D  c #0B2A23",
"F  c #072A2B",
"G  c #132423",
"H  c #1C2324",
"J  c #152A2B",
"K  c #1C2C2B",
"L  c #172728",
"P  c #09322B",
"I  c #13332C",
"U  c #1C322D",
"Y  c #1A382E",
"T  c #082A34",
"R  c #152B34",
"E  c #033335",
"W  c #0D3432",
"Q  c #06383A",
"!  c #163738",
"~  c #242728",
"^  c #292835",
"/  c #243232",
"(  c #243936",
")  c #253B3B",
"_  c #28363A",
"`  c #38383A",
"'  c #372539",
"]  c #41233B",
"[  c #15433B",
"{  c #0D423C",
"}  c #24443E",
"|  c #053A43",
" . c #183944",
".. c #172D44",
"X. c #362C43",
"o. c #283B47",
"O. c #3A3949",
"+. c #472544",
"@. c #483951",
"#. c #543050",
"$. c #014B4B",
"%. c #054646",
"&. c #154744",
"*. c #1A574B",
"=. c #034F51",
"-. c #095656",
";. c #1A5758",
":. c #11504E",
">. c #2C4C49",
",. c #274546",
"<. c #3C4D4C",
"1. c #344645",
"2. c #26514C",
"3. c #255454",
"4. c #285757",
"5. c #3C5757",
"6. c #384F51",
"7. c #116656",
"8. c #36605C",
"9. c #286259",
"0. c #0C5F61",
"q. c #325F64",
"w. c #046664",
"e. c #1A6669",
"r. c #037976",
"t. c #1B7A76",
"y. c #167170",
"u. c #346C69",
"i. c #387569",
"p. c #24787B",
"a. c #41514F",
"s. c #48485A",
"d. c #455856",
"f. c #534A5D",
"g. c #4B655F",
"h. c #505C6C",
"j. c #725976",
"k. c #684869",
"l. c #46656A",
"z. c #586B6A",
"x. c #4B716B",
"c. c #45736E",
"v. c #497675",
"b. c #567273",
"n. c #677A79",
"m. c #717A7C",
"M. c #636970",
"N. c #10837D",
"B. c #2A877E",
"V. c #46857D",
"C. c #69827D",
"Z. c #007F82",
"A. c #6A7583",
"S. c #6B7183",
"D. c #188786",
"F. c #0B998C",
"G. c #15998C",
"H. c #169492",
"J. c #258591",
"K. c #329890",
"L. c #1CA59A",
"P. c #3EA298",
"I. c #379AA5",
"U. c #2E93A4",
"Y. c #1CA8A5",
"T. c #2BAAA5",
"R. c #36A6AA",
"E. c #27AEAA",
"W. c #5A8684",
"Q. c #549289",
"!. c #4F9D93",
"~. c #4F948C",
"^. c #698587",
"/. c #788B8A",
"(. c #63918B",
"). c #7C938D",
"_. c #68959A",
"`. c #7E9491",
"'. c #788D92",
"]. c #52A49B",
"[. c #64A29D",
"{. c #679EA2",
"}. c #7B90A1",
"|. c #4BADAE",
" X c #78A7AB",
".X c #6CB0AC",
"XX c #1DC9B6",
"oX c #7BC6B8",
"OX c #5BAEC3",
"+X c #1DD8C3",
"@X c #2CDDCC",
"#X c #27D7C9",
"$X c #36DCC5",
"%X c #36D3CD",
"&X c #39E3D8",
"*X c #31EBD9",
"=X c #39F4E4",
"-X c #47D0CE",
";X c #7FDFDE",
":X c #43E8D8",
">X c #54E6DF",
",X c #6DDAE6",
"<X c #51EEE7",
"1X c #6BF2EF",
"2X c #869898",
"3X c #888696",
"4X c #96A19F",
"5X c #8F99A8",
"6X c #8CA4A4",
"7X c #97A8AB",
"8X c #99A9B2",
"9X c #9FB6B6",
"0X c #88BAB8",
"qX c #A6A7A8",
"wX c #A8BABA",
"eX c #B8BCBC",
"rX c #A0A4B0",
"tX c #C0BBBF",
"yX c #89C7BD",
"uX c #B6C3BC",
"iX c #A8BFC0",
"pX c #B5BCC2",
"aX c #C1B8C8",
"sX c #8BD9D3",
"dX c #90D2CC",
"fX c #ACC6C4",
"gX c #B7C8C7",
"hX c #BCD5D6",
"jX c #ADD4D3",
"kX c #A4E4D8",
"lX c #92FEFF",
"zX c #99F8FC",
"xX c #84F1F7",
"cX c #B7F6EB",
"vX c #ACEFE9",
"bX c #84DFE4",
"nX c #C5D2D3",
"mX c #D6EAE9",
"MX c #D5E8EE",
"NX c #EBFEFD",
"BX c #E4F4F2",
"VX c #F3FEFF",
"CX c #FAF9FF",
"ZX c #EFEBF6",
"AX c #CEE2D9",
/* pixels */
"5 , , , 1 1 1 1 w = 6 - 6 4 w 1 = w , w = w 5 w = = 1 5 = 1 5 5 5 w w = w 5 = w w = 1 5 5 w w w 1 5 4 6 l 6 4 w a 2 1 4 4 4 t 1 ",
"5 8 , 8 , 1 1 1 w 4 * 4 4 5 1 1 1 5 : 5 = 5 5 : w 5 : 5 5 w 5 : 1 = 5 5 = 1 = w = w 5 : w = 5 O # , 6 6 6 - w $ 3 $ w 4 4 8 , 3 ",
"1 8 8 , 5 , 5 5 : : 5 w 5 # 1 2 1 = : 5 1 = w 5 5 5 5 5 1 = 1 = 5 w 5 5 5 : 1 5 5 , = 5 , 5 5 w # : * 4 4 4 1 2 $ 1 5 4 4 4 , 3 ",
", , 5 5 5 5 5 = 1 1 1 # 1 2 2 1 1 5 5 w 5 w O w = 1 = w = w 5 5 5 = # 5 5 , w = : 5 w 5 : 5 w # 1 1 5 = 5 : 1 $ 2 > 4 4 4 4 w w ",
"5 5 5 5 5 4 5 5 1 1 1 2 $ 2 2 $ # 5 5 = 5 : = w w 1 5 5 w = = w 5 5 5 w w = 1 5 : 5 5 1 5 : = , $ $ 1 5 5 1 2 2 1 1 * 4 4 = w 2 ",
"= 5 : = 5 = 5 4 = : 1 2 2 2 $ $ 1 w 5 5 w , w = 5 = 5 5 = w 5 1 w 5 : = = w : 5 5 5 w = 5 5 w 1 2 2 1 > 5 : 1 O 1 > 4 4 4 4 : : ",
"= = = # 1 1 5 4 4 6 4 1 # 1 % # 1 = 5 5 = w w w w 5 = # 1 w 5 5 O w w w = 5 5 5 = 1 , 5 w = 5 # # 1 5 4 4 4 4 5 1 w 5 5 = = = : ",
"- * > $ $ 2 4 6 6 6 6 4 5 1 w : 5 5 : 1 = 5 = w = 1 w 5 5 = : 5 : 5 O 5 w 1 = w w = w : 5 w w : > w 4 6 6 6 4 4 4 5 1 > : = ; = ",
"- . @ s a d o I i.S - l f 7 7 . = = 1 5 = O = = w = = w O 5 w 5 5 = w = : 5 5 1 5 w w w w w 7 = w 4 * l h - h l.c + d % e # . * ",
"& - $ a % 3 g ^.cXoX*.& & 9 4 4 = t w w 5 O w w 5 5 1 5 w w = 5 5 w 5 1 5 5 w = w 5 = = r w w w 5 6 h - & 9.yXcXb.0 3 3 $ @ 7 - ",
"& g $ a a X &.kXoXvXsXC.[ o . A o 5 w w w 5 w w # 5 1 = w = 5 : = w 5 : = 1 5 1 w w O = : w = = 9 . - [ Q.kXvXdXjX^ X y % @ k & ",
"l ; % 3 3 < 8.vX].!.0XjXwX^.2.* * O O = w w w = 5 5 5 w = w 5 5 1 5 5 5 5 w = 5 5 w w w = O = ; 6 ,.^.fXvX.X~..XcX,.o y % @ r & ",
"; . > e o z V.sX].e.M.5XrX2XW.l.~ k : O w w 5 O 5 w = 1 = w 5 5 5 = = w 5 1 : 5 = w w 5 = w ~ ( x.^.`.9X5Xh.q.{.kXu.4 8 p 1 O = ",
"r . y p o Z !.sX.XA.@.#.j.m.c.c.a.` k # = 5 w = w = = 5 w 5 5 # 5 w w 5 5 = 5 5 w w : O # H ] d.x.v.A.h.X.#.A.{.dX~.Z 4 0 # @ > ",
": # w 4 4 S !.bX{.}.j.#.#.f.2.3.<.` ~ w O = w w 5 w w w w : w = # 5 = w w 5 5 w w = = = w ~ ` a.2.4.f.#.+.S.5X_.dX~.S f 6 , % a ",
"> t + o S E K.sX.XS.k.#.V ' >.! K ~ H p w = = w 5 = O = = = = = = 1 # = = # = = = O O 8 k H ~ U ! ,.X.V #.k.S. XdXJ.Z Z 4 w $ @ ",
"= 5 5 o 6 W v.dX_.l.O.+.V C L L ~ d p w = = = = 5 * = = * = = = : : # # = = 5 = 7 * 4 * * 7 j G L L V V ] #.x.[.dXi.S q , # O = ",
"* = O 4 q F c.yX_.l.O.X.C m b b v p t w = = = = = = = = = = = = : # : = : = = 5 = = = = 7 7 j u c b B B ] a.v._.oXu.Z 5 1 % * - ",
"= = O 8 4 Z q. XW.d.o.' C m b n e w 1 , O 1 > w , : 1 1 : w 1 w w = 5 5 5 5 5 1 = # % # $ e e e t b m B ] O.x.[..X9.9 , 1 # = - ",
"= = , t 8 9 >.(.b.6.^ ' m m n t , , 1 1 1 1 1 1 3 1 1 1 1 2 2 1 , 5 5 5 5 1 , 1 1 1 1 2 2 2 3 3 t n s B V ` 5.V.!.*.4 O 2 e = & ",
"5 , , t 8 4 ! c.5.,.~ N d y p , , 5 w w w , t , t 1 1 3 1 3 3 1 5 4 , , 8 , t 1 1 3 1 3 2 2 2 2 t t d s B ^ >.x.i.{ q , 1 1 w * ",
"5 5 , 3 8 q D >.>./ N d 3 3 5 * 8 7 8 4 5 5 , , 1 w , t 1 t w 1 , 8 , 8 , 5 , , 1 , w w w w 1 4 * 5 $ s s ~ ( 8.2.F o , $ 2 7 = ",
"5 5 1 , t 4 6 I ( G y y 2 1 7 . * * * 5 5 4 5 4 4 5 5 7 4 4 4 4 5 , t , 5 5 5 = 7 4 4 4 4 - 6 - * = # 2 s p K } I - 5 w % 1 w = ",
", p 1 1 e 4 4 f K r w e # e 7 - * * * * * * = = * = = = 4 4 * = 5 w O 5 5 = = = = = * * * - - - & 4 > $ a > 7 Y h - = p w # 5 O ",
"4 1 3 1 1 5 4 - 0 7 + d e + g - * k . ; r . = = ; = = = ; ; - ; = : ; @ @ ; O = + r * = 7 - - & - * = > e % . g - * 5 w # # w 5 ",
", t 1 3 1 : 4 4 & 7 @ e p 4 g h g ~ k = = w p : @ @ @ ; @ @ ; ; = : > > @ @ @ > e @ + = r 7 r 0 l 6 7 : e # ; = * = = : 1 w w , ",
"5 5 1 2 w w 7 * * r # e w 7 D S 9 G K G i v e 1 > > > > > > > > @ ; @ > : @ # > d 1 y M e i t 8 g f 6 * : r : O = = : : 1 1 w , ",
"8 1 1 1 # w = * 4 p w 1 r L ! { 4.! ,.,.) / c v e > % $ @ > > > ; @ ; : : > # e y 1 ~ ^ ~ _ _ o.P F g * = : p @ : : = : 5 5 w w ",
"4 1 1 1 2 # = * * w e t ~ o.! :.-.$.$.:.&. .R R G n 1 1 % $ $ % O = 5 5 = 5 8 t c R  .R T | %.Q [ W I D 4 : p @ > : = = = = 5 , ",
"4 5 1 2 # : 4 = o 8 t i _ ! E $.$.w.N.N.w.-.e.E W J n , 1 1 3 1 : w 5 < 5 x x T | 3.;.e.Z.y.w.$.%.S W I 0 w e + > @ = = = = 5 w ",
"4 4 1 2 # : = = = w v v _ ! E w.Y.@X&X>XL.w.t.e.%.Q F z q 8 , 1 1 1 3 < 8 F W | e.t.-.H.,X:X#XE.e.Q P W 0 8 i % # : = = = 4 = w ",
"5 5 1 1 1 : = 4 = 4 i c o.,.:.!.$X=X@X<XF.E D.|.-.$.T x n 8 4 4 5 , , t x R | =.|.H.Q r.>X&X*X&X|.4.! ! 0 8 p # # @ = = = = O 5 ",
"5 5 = 1 , 5 , 8 5 4 u J I [ 9.B.@X<X1X,XU.I.R.-XI.| ..C m 1 - l - 4 t % M o.| U.-XR.U.Z.xX1X=X$XP.4.{ P A 5 8 p @ = = @ = = : : ",
"1 # w 5 5 5 1 5 w 5 7 D D [ *.N.$X:XzXzXOX,X1X%X%Xy.| ^ m e - & & ; p y V o.0.XX&X<XbXOXzXxX<X-XB.*.Q I A 0 7 O = : = : = : = : ",
": 5 = , 5 = w , p , = g D [ } 7.G.1XlXbXI.Y.&X=X&XH.| R N y = & - ; t v R | Z.@X=X=XR.Z.xXlX1XT.-.&.[ D 4 8 w + : = = = 5 = # : ",
", 1 5 5 5 5 5 , 5 , ; k h I [ 7.7.K.,XzXJ.r.@X*X#XY.Q T v y : = : : 0 c R | F.+X=X%XZ.J.xX;XR.w.9.&.W g q 4 p , # = = = = : O : ",
": 1 = 5 5 5 , 5 1 , 5 8 9 Z ! &.$.$.B..X|.G.:X@XXXE.%.E G t O e 1 3 0 z T $.L.XX@X&XR.I.OXZ.-.=.3.Q Z 9 4 , w w # , = 5 = w w # ",
"5 5 5 5 5 5 5 1 1 1 5 , o 6 D W { { { =.B.N.L.L.H.D.$.S x w # 2 % y 8 z T $.D.F.F.T.K.y.e.| |  . .Z q x 8 1 # # = = = = = = w 5 ",
"1 5 w = 5 5 w , 1 t t < 4 4 9 f P S } 9.%.| 0.| -.%.Q 9 8 t O 2 3 v < x z E %.=.=.=.:.3.4.4.! F F 9 9 8 , e 1 X : : = = 5 5 1 5 ",
"= w = , 5 4 1 1 % % 1 1 t u 9 q g g I l o. .R o.R z R < 8 t O O w 5 + c x c x ! o.! o. .J R A R 9 0 c , X 1 y O # 1 = = 5 5 1 5 ",
"1 5 5 5 = 5 5 , 1 1 3 t , < 4 0 7 7 g G 0 b C n N n t 8 < n t o o 7 7 4 r u i N d ` H 0 / G o u q q < w 1 1 % 2 = : 5 5 5 4 1 1 ",
"5 # , = 5 5 5 1 e 2 % X w v 4   4 7 * = 8 X 3 C 3 2 t < o q * 4 4 * * o * r 2 3 $ % w 7 o 4 0 4 o 8 c 1 1 # e O : 5 = 5 5 5 t , ",
"1 1 = 5 5 5 , w 1 e 3 X , H L 4 o 7 r 4 0 p w , e t r r G G 0 0 g g j k - - r > > = g g o o 8 o 4 H H , X 2 e @ : = 5 5 < t , 1 ",
"w = w 5 5 5 5 5 X y b 1 , u / O.L     4 4 + 4 4 * g 7 k J G A U Y j k G h h k 7 & 7 & . o q < z _ / v O + 1 e # 1 = 5 4 , , , t ",
"1 O 5 5 5 5 5 5 O 1 t t O < K <.z.z.d.k U j G I Y Y } ~ U K ` } } ( ^ / ( } Y g I g Z Z / O.q.6.1.K 8 , # 1 # p = 5 5 5 , 8 3 t ",
"1 1 5 = 4 5 4 5 w X % t 8 < 4 G d.uXuXm.wX2Xg.C.C.C.z.z.m.2X3XM.z.'.3XS.z.x.b./.C.g.W.5XS.A.A.6.J 8 o w i 1 O @ : 1 4 4 8 1 < 3 ",
"# w 5 5 5 4 4 1 e , , 5 t 5 o 4 4 5.m.qXCXuX2XAXBXuX4XqXtXZXmX6X6XMXZXaX7X6XiXBXwX/.9XhX3XM.h.T 9 * * 8 t : O O = 5 , 4 q 3 t 3 ",
"> 1 5 5 5 5 5 , , t 1 , , 8 0 9 4 g a.z.tXuXgXuXCXnXtXeXtXVXVXfXfXVXCXpXeXgXnXVXgX7X8X8XM.X.T z q 4 8 O O 5 > w = 5 8 , < , , t ",
"5 1 5 5 5 = , : 5 5 w = 1 5 5 5 o q 0 K a.A.9XhXmXmX6XVXgXBXVX7X8XVXmXhXNX6XMXAXiX6Xn.6._ v x 8 , = 5 5 5 w # 5 5 = , 5 w 5 1 5 ",
"5 5 = w 5 w 5 5 = w 5 5 5 5 1 4 8 0 0 A U 6.z.C.6XfX9XVXhXgXBXwX9XNXgXhXNXiXiX6XC.z.<./ c 0 , , , 5 5 5 5 : 5 5 w 5 = w = 1 5 5 ",
"5 1 1 = 1 = 1 = 1 w 5 5 5 5 5 5 8 5 4 q 0 J ( } g.C.).fXfXwXnX6X4XAXwXfXfX2Xn.g.1.( L 0 8 , 8 8 , : = , 5 5 5 1 = 5 : 5 = w 5 w ",
"5 = 5 w = w 5 5 5 = # 5 1 5 5 5 < 4 5 8 0 g L U / } 5.z.).2X2Xn.n.2X).2Xz.d.) ( K L u 8 8 8 5 , 5 w = w 1 = 5 = 1 5 5 5 w w O 5 ",
": 5 = w 5 = = w = 5 = w = = 1 5 , 8 , 5 4 0 0 c k U U ( 1.a.<.d.<.a.<.<./ ( K G G c 0 8 8 , , , 1 5 5 = w , 5 w 5 w 1 = = # 5 5 ",
"w 5 w 5 5 1 w 5 w 5 1 = 5 w w = 1 1 , 8 5 5 8 4 7 G j G 0 K j ( / L K k u G G u 4 5 4 5 , 8 , 1 5 5 1 = 5 : 5 : : = 5 w w 5 5 5 ",
"= 5 = : w O w 5 1 = 5 w w = 5 # 1 , , , 5 8 5 8 4 7 o 7 0 G 4 0 0 i u k 4 < = 8 4 , 1 w 5 w e t 5 5 : w 5 w = 5 5 , = 5 = 5 w = ",
"1 5 w , = w 5 : = w 5 : , w 5 5 O 1 , 1 5 1 4 5 7 8 7 8 7 o 4 4 < 4 . i O 4 O , , 5 8 1 1 5 5 w w 5 5 5 w = 1 5 = w 1 5 w 1 = w ",
"1 = w 5 = 5 w = 1 5 = 1 5 w = 1 1 1 1 1 , w 5 1 5 5 4 5 5 4 4 4 5 5 5 5 5 5 , 5 , 5 w 1 5 w , w w = = w 5 5 w = w = 5 5 5 = w = ",
"5 w = 1 w 1 = w = 5 w = = w = 1 1 5 1 5 1 1 5 1 5 1 4 5 8 4 5 5 5 5 5 , , w 5 1 1 w , w w , w , , 5 1 w 5 # 5 5 5 1 # 5 5 w 5 1 ",
"= w w = 5 : 5 5 w 5 5 w w = 5 5 5 # w 5 5 1 1 5 , w 5 = = = = 4 4 5 5 w w , 1 1 # w 1 O 1 5 5 5 : 5 5 = 5 w = 1 w = 1 w 5 5 = w ",
"1 5 = w , 5 5 5 5 # 5 5 5 1 = w 5 , = 5 5 5 5 1 1 w 5 5 5 5 5 5 5 5 5 = 1 1 1 w w # w w 5 5 5 5 w 5 1 = w = w 5 = w 5 = 5 5 # 5 ",
"= 1 5 5 1 5 = # 5 : w = = 5 : 5 4 = 7 = = 1 1 5 , 1 1 = = 5 5 , 5 5 5 5 = # w 1 1 1 : 5 5 5 = 5 = O w 5 1 5 5 5 5 : 1 = w = 1 5 ",
"w = w = = w w 5 5 5 5 1 1 5 5 5 = 4 = 5 5 w = 1 1 : 1 1 1 5 5 = 5 = w : 1 1 w # : 1 1 5 = 5 5 5 5 w w = = w : 5 5 5 5 w = w w = ",
"w 5 5 # 5 5 5 1 1 = w = : 5 5 5 4 = 4 = 5 5 w # # w : 1 5 5 5 = , = 5 5 w 1 1 # # w 1 5 5 5 4 = = 5 w = w = 5 w w = w = , w w = ",
"= 5 5 5 5 : 5 = w 5 5 5 5 , 5 = 4 * 4 4 5 = = w 1 # w 1 # 5 , 5 5 5 5 5 # : 1 1 1 5 # , = 4 5 5 5 w O w 5 : , = 5 1 5 5 : = 5 1 "
};
