/* XPM */
static char *_579136600352[] = {
/* columns rows colors chars-per-pixel */
"64 64 256 2 ",
"   c #030503",
".  c #040906",
"X  c #0A0A05",
"o  c #02060A",
"O  c #040B0B",
"+  c #0A0D0C",
"@  c #08070E",
"#  c #05110D",
"$  c #0C120D",
"%  c #12150D",
"&  c #040D13",
"*  c #0B0D13",
"=  c #030A19",
"-  c #041214",
";  c #0B1414",
":  c #0D1915",
">  c #04141B",
",  c #0C151B",
"<  c #041B1B",
"1  c #0D1A1B",
"2  c #021B15",
"3  c #121613",
"4  c #131A16",
"5  c #11141B",
"6  c #121C1B",
"7  c #1B1D1B",
"8  c #1A1915",
"9  c #110B0E",
"0  c #0A211D",
"q  c #15211C",
"w  c #1B241A",
"e  c #23251D",
"r  c #041523",
"t  c #0C1622",
"y  c #041924",
"u  c #0C1A23",
"i  c #041B2A",
"p  c #0B1D2B",
"a  c #05162A",
"s  c #131D22",
"d  c #171C25",
"f  c #0C1E37",
"g  c #211F24",
"h  c #0C2325",
"j  c #0C232C",
"k  c #062526",
"l  c #142324",
"z  c #1B2323",
"x  c #1C2A24",
"c  c #14232B",
"v  c #1B252A",
"b  c #142B2C",
"n  c #1B2B2C",
"m  c #132A22",
"M  c #1A312B",
"N  c #0B2433",
"B  c #092838",
"V  c #122634",
"C  c #142B34",
"Z  c #1C2C34",
"A  c #142B3B",
"S  c #1C2D3B",
"D  c #182538",
"F  c #083439",
"G  c #1D3134",
"H  c #1C333B",
"J  c #16363A",
"K  c #03322C",
"L  c #242423",
"P  c #232B24",
"I  c #2B2B25",
"U  c #232B2B",
"Y  c #2B2C2C",
"T  c #262529",
"R  c #322C2A",
"E  c #322B25",
"W  c #273329",
"Q  c #34322E",
"!  c #242D33",
"~  c #2A2D33",
"^  c #252C39",
"/  c #243234",
"(  c #2A3334",
")  c #2D3B33",
"_  c #24343B",
"`  c #2B343B",
"'  c #2C3B3C",
"]  c #223938",
"[  c #323434",
"{  c #333B3C",
"}  c #373A37",
"|  c #372C32",
" . c #271D1B",
".. c #473C37",
"X. c #41332E",
"o. c #15423C",
"O. c #37433B",
"+. c #25403B",
"@. c #44423D",
"#. c #0A2D46",
"$. c #182D44",
"%. c #0C3845",
"&. c #1A3442",
"*. c #1B344B",
"=. c #143B4C",
"-. c #1E3B4B",
";. c #163746",
":. c #073C53",
">. c #193C55",
",. c #223444",
"<. c #243C43",
"1. c #2C3C42",
"2. c #243B4B",
"3. c #293848",
"4. c #333C43",
"5. c #383C45",
"6. c #233C52",
"7. c #273C57",
"8. c #272E40",
"9. c #163E61",
"0. c #423B42",
"q. c #194748",
"w. c #1C425C",
"e. c #194658",
"r. c #155A5A",
"t. c #0F4D4B",
"y. c #2D4244",
"u. c #2D434B",
"i. c #28484A",
"p. c #344345",
"a. c #3A4444",
"s. c #34444B",
"d. c #3B444C",
"f. c #3C4A4C",
"g. c #384B49",
"h. c #24435B",
"j. c #284757",
"k. c #3B4C54",
"l. c #374A56",
"z. c #295656",
"x. c #395459",
"c. c #31514B",
"v. c #196257",
"b. c #2B635B",
"n. c #184864",
"m. c #1B5575",
"M. c #14526C",
"N. c #254A65",
"B. c #364B62",
"V. c #285668",
"C. c #385766",
"Z. c #255A77",
"A. c #3D5C71",
"S. c #2A6369",
"D. c #37656A",
"F. c #2A6676",
"G. c #376778",
"H. c #2F7573",
"J. c #1A6869",
"K. c #434642",
"L. c #464949",
"P. c #514E4A",
"I. c #45524B",
"U. c #54524D",
"Y. c #414B54",
"T. c #464C58",
"R. c #445355",
"E. c #44545B",
"W. c #455B5D",
"Q. c #4B5759",
"!. c #565B5B",
"~. c #574E54",
"^. c #4D625C",
"/. c #63625C",
"(. c #495A65",
"). c #545B68",
"_. c #48556B",
"`. c #4B626A",
"'. c #4B6467",
"]. c #556669",
"[. c #496876",
"{. c #5B6A73",
"}. c #576977",
"|. c #5B7577",
" X c #4F7472",
".X c #656A6A",
"XX c #636B75",
"oX c #67777C",
"OX c #777976",
"+X c #70726F",
"@X c #665B60",
"#X c #807F7A",
"$X c #32857A",
"%X c #64837C",
"&X c #8A837D",
"*X c #196889",
"=X c #2B6788",
"-X c #376A84",
";X c #387985",
":X c #317294",
">X c #3579A3",
",X c #245983",
"<X c #477786",
"1X c #587785",
"2X c #55738B",
"3X c #697A84",
"4X c #737B87",
"5X c #66798C",
"6X c #318E92",
"7X c #3889B3",
"8X c #3697BD",
"9X c #3188AB",
"0X c #2EB5AF",
"qX c #2FA29B",
"wX c #578797",
"eX c #468C8F",
"rX c #6C858A",
"tX c #73858C",
"yX c #778688",
"uX c #6B8895",
"iX c #7A8A94",
"pX c #799398",
"aX c #62939D",
"sX c #4F91AC",
"dX c #739AA6",
"fX c #5CA9AD",
"gX c #39C6B7",
"hX c #389BC1",
"jX c #3CA2C8",
"kX c #4EACCE",
"lX c #63A1C4",
"zX c #51D2D1",
"xX c #69DED7",
"cX c #57E9D8",
"vX c #63DAE8",
"bX c #83949B",
"nX c #869899",
"mX c #8B8D8E",
"MX c #899AA3",
"NX c #919CA5",
"BX c #8DA3A9",
"VX c #96A4AB",
"CX c #97ABB4",
"ZX c #9BB4B8",
"AX c #91ACB2",
"SX c #A1ADB5",
"DX c #A6B8BA",
"FX c #8AA19B",
"GX c #ADC2BD",
"HX c #8EB6C8",
"JX c #A6BDC3",
"KX c #B3BAC6",
"LX c #B1C9CC",
"PX c #87F2FF",
"IX c #C4DBD9",
"UX c #D4E9ED",
/* pixels */
"c b C h u > u u t t t t = t = t - ; s p t s , c S D u - - - & = a A $.A ;.&.h r t s 5 = t a r > > * = & , = & - - ; 5 * d D 8.f ",
"c c c s u , , u t , t , t 5 t = - c ,.^ d d u Z ,.,.y - + & & r 2.,.*.>.>.%.A a a = 5 5 d 8.,.,.D v c V D $.b c c v c u C 3.7.*.",
"s p h u t t t t t t , t t 5 5 = j =.6.,.8.D a j $.2., O X @ = $.j.-.>.N.n.>.N.$.k > u d r D 3.6.2.2.$.A $.$.*.D C V p p J ;.>.w.",
"p s u t 5 t 6 t 5 5 5 , = t 5 p N #.$.A &.S p N B &.u O 9 @ f *.7.w.>.n.,X:X,Xn.e.B y > > N u.j.h.=.=.#.>.h.6.f f a f S e.=.e.e.",
"u u s , t t s 5 , , , , 5 5 t p y i i h c d p $.A N p * , & f #.9.9.9.,X:XlX>X,XZ.n.A i y p 6.B.N.e.:.>.w.w.7.>.6.,.j.B.A.j.e.*.",
"t t a t t s t s , * , , d t , r f a r y t * a V B B Z , @ = #.N.m.9.,X*X*XkX7X>X:X,Xw.#.B a f *.w.e.N.-XwX5X2X`.k.7.C N ,.j.h.-.",
"a t a t t u s t t , > t a a a p A N N A V t t a N A / s = = N C.,Xm.,X>X7XkX7X7X9X>X,Xn.>.B f #.Z.wXdXaX[.l._ n d d * & H 2.&.$.",
"a a t t t u t u t a u t a a A ,.6.6.h.j.A a a = V G Z c = u = :.,Xm.*X>XvXvXjX7XhX7X>X,X9.#.N.[.wXaXA.N > d P R R E 7 d 3.&.$.-.",
"V j y y u > u > t p a a B $.*.h.7.7.h.N.>.$.a a j J C *.A i r i :.*X>XkXPXvXvXhXhXhX7X=X2X2XlX2Xl.S t 6 L E X..... .7 ~ ^ i *.;.",
"&.H C C p y p c c V N A *.N.N.7.B.N.9.>.9.#.B i < A =.=.>.N.#.B :.*X>XvXvXzXkXkXjXkXsX>XxXaXA.A y 5 6 7 R ....X.E E } 5.Z j N &.",
"A G G H H Z S Z H 3.2.2.7.N.>.>.7.B.>.w.n.n.=.i k =.w.M.m.:XG.Z.G.>X:XsX9X*X*X:X6XsXlXwXD.j.J > 1 7 I R E | | R 7 5.d.3.Z D i A ",
"&.H C C Z Z Z ! _ 3.7.u.j.7.h.N.7.6.n.n.n.-Xn.>.j.j.N.<XsX=XZ.V.Z.N.#.m.M.m.m.m.n.J.j.<.B k & s ; 6 I } } X.| g ~ 5.3.3.S A N h ",
"C H / S Z z v n U n Z _ ,.2.h.j.-.>.N.n.Z.sXG.V.j.B j.<XeXn.r j l.B i #.n.V.h.%.%.F H / h 2 l , 0 ] g.I.} Y Y T 5.5.5.7.$.$.N f ",
"Z S c l v w 7 4 6 1 6 0 p b H -.e.h.h.e.Z.;XeXe.k > V C.C.B = h j.a i N ;.-.A b N G c > - & , O h q M ) { O.} ^ ^ D 7.7.2.6.A N ",
"4._ , o ; 4 8 % 3 3 : : 1 n 1.i.c.q.J C %.t. XV.< & > &.-.> > 1 S r u G m m < k b C > - > < ; n * - q P U P n n c p j.2.6.j.&.#.",
"3.3.s , L L e e e 8 $ . : / y.G M < l M k k z.z.H O O u J y & l l 2 l 0 m 2 m b k k &.J C J J < s v z ; . # q h < %.j.>.>.6.6.D ",
"-.2.,.^ ! ~ } @.@.@.E % 4 W l l 2 ; 4 e q 2 k c.c.0 . # n < - l 2 x l 1 l k J B F A.D.V.S.G.w.&.S , l 4 w m 0 F %.N.n.w.h.=.&.&.",
"*.-.2.,.` [ ..P.U.L.@.W x l m 2 q % $ 4 W q # J c.b 2 < / s s b x +.( l b i.z.%.e.r.V.F.G.-XG.h.H n n x 0 0 k q.D.G.V.n.>.%.H V ",
"7.6.,.3.5.L.L.P.U.@.x m 0 G J i.M 0 : # O.O.2 0 x.c.b 1 n ! ! ' +.Q._ p x.<X<XD.j.N j.[.[.V.C.A.c.k.] z l > j i.N.F.Z.w.=.%.%.&.",
"6.*.$.8.3.{ 4.a.O.) 0 0 o.o.q.i.c.W w : p.].+.0 x.'.g.1 v p.1.R.).].^ &.1XaXwXG.$.,.l.}.[.C.j.l.}.(.' c n n 1.x.%.z.F.F.n.:.=.=.",
"*.$.$.S ,.^ n U q < 2 b z.z.D.G.'.c.l 1 f.XXx.m x.rXE._ ' R.R.E.3X}.^ l.eXwXaXD.l.}.}.3X}.}._.1XrX`.k.1.v ^ 1.y.N F V.<XG.M.e.e.",
">.*.$.,.3.` n l n m M i.+.z.b.D.'.W.c h E.3XW./ u.pX'.f.E.R.).W.3X{.3.(.1XwXpX X5XiXMXMX4X5X(.}.`.(.`.s.k._ _ 1.< < B S.wXG.n.M.",
"#.>.-.j.<.G b n x M p.i.b.c.z.z.x.x.<.Z E.3X].x.s.nX{.s.Y.R.W.E.oX{.k.).aXBXdXdXLXZXdXuX5X5X}._.C.`.|.(.}.H b ! 2 & O j <XaXF.M.",
"=.>.=.=.i.G b n x +.] y.]. Xj.`.[.z.x.3.l.}.oX3Xs.MX3X_ 1.R.f.f.%X].R.4XZXLXJXZXLXAXrXuXMXNXuX2XT.(.B.(.u.G / n * o , = N aXlX6X",
"=.#.;.&.J n M x l ) p.' x.x.g.`.3X X'.'.}.}.tX1X_.bXbX5.<.1.' f.!.XXOXNXLXAXnXoX X'.'.rXiXMXCXBX}.s.H l.H G ( d   % + O i z.wXfX",
"=.;.J J b n / W x W a.g.p.g.E.`.|.uX|.rXiXVXVXXX(.4XBXs.1.' 4.4.].yXnXZXZXpXR.y.] G '.nXVXVXHXAXrXy.s.&.Z / / 3   X X $ > B N.<X",
"S A C Z m n ) ) W W O.g.g.g.'.yXpXAXAXLXJXDXSXNX4X3XNXl.y.1.4.Y.{.).rXMXbXXX! s l 2 q G XXCXIXKXpX^.g.G v U T X X X X $ ; y *.B.",
"C S Z c q w ) O.P ) O.g.I.^.{.iXVXAXBXBXCXDXSXVXNXiXyXx.p.s.` 4.).E.3XBXOX5.d , . O # - o > iXLXnX X1.' z ! L + X X   # 1 p ^ j.",
"Z ^ n s s z W +.w ) O.I.I.%X X].yX'.W.E.3XrXXXoXoXbXyXx.g.s.5.T.(.(.].4XXX8.* = > o 2 k q.J y uXJX{.p.( d } 7 + . . O # 1 s c / ",
"C _ Z 6 : q W O.w W +.I. X.X^.x.f.[ ' n ] f.5.Q.XXVXpXW.E._ ` T.E.l.}.oXT.T & s 1 o o C S.H.e.k tX.X/ # d ( 6 O . O # ; ; 1 6 Y ",
"_ <.Z h 1 4 W O.W x +.I./.^.+.O.U ; & # o 2 d Y.oXbXyX(.oXg.4.Y.Q.1.].4XQ.k k i.c = & B H.6X*XF r { ; & ( ) n > # O 1 6 ; 6 z ( ",
"i.l.' n 0 2 x O.W x @.I.I.O.+.# o 1 < O . O < r (.nXNXoXyXR.d.T.).Y.E.XXg.#  XUXS o o B fX0X9XJ.> @ 5 R.R.I./ 1 O O u 6 6 x n x ",
"i.x.s.s m : ; +.L.e O.!.I.) # # m M 2 o . l i.k j.MXbX3XyXQ.)._.).~.d.W./ 2 c.|.M O = %.0X0XzXjXi a ].].4.a.l z , ; * s U / n z ",
"'.(.d.T P q ; W I.O.q P O.q # m q.z.[.o   O V.r.F 4XNX{.yX)..XoX4X_.3.1.> h o.o.J 2 & F gXcXcXqXk |.{._ d.( 7 T + X ; 7 / ( _ / ",
"|.`.T.5.Y 5 # q O.O.W # # . # o.o.H.pX-   2 H.6XJ {.4XXXyXyX+XoXiXXX8.y.2 0 b.v.q.# & %.gXcXvXt.D.nX(.' d.( g P z d w U ( ( / G ",
"5X`.Y.[ ~ L 6 W M O.) q . . 0 b.J.v.%.& o - qXzXD._ ).NXnXyX%XnXSXSX).1.: 0 c.H.H.q.& %.cXcXt.F.JX3Xl.` p.Y ~ d * + ; : l l l h ",
"3X(.T.` ~ T 7 W m +.W O.e . 0 b.$X$XH.k . K zXcXeX] 3XKXGXZXDXLXSXNXiX].W - 0 b.$X%Xo i.eXr.2XHX5Xk.1.d.v U z [ o o O 1 l l l l ",
"}.`.(.,.~ L + @.w O.W W I.+.2 o.qX$XH.o.. o.cXcXv.+.MXIXIXIXLXGXNXyX%XQ.] 2 O < q.t.J q. XuXuX5.4.! 4.` v * 4 ; . ; : 6 6 l l h ",
"}.[.x.,.) ) w &X@.% W W ) /.^.K v.fX6Xz.2 H.xX6Xk G bXUXGXnX4XyXU.L.` ! , o v s.|.pXuXiX X3.^ 3.4.! d U 6 ( [ + o # 1 6 l l v b ",
"5X1Xx.l.g.I.% %X&X% w P W O.^.^.b.o.q.q.0 b.J.K K Z ).3Xf.Y [ | s z 5 o * ! 5.{.tXpXBX3X1.,.^ T d v ! d * T 5.+ o $ , 6 6 l n Z ",
"5X|.).C.E.R.) I R E e e w % W O.^.c.+.M +.c.i.%X%X'.g.p.!.P.| 0.a.s 5 s 0.{.T.Y._.bXKX4X(.l.! 5.d.{ T d 5 O 5 + # : 7 l 6 1 1 < ",
"5X1X}.}.l.g.a.  8 &XE 8 q x w W e W ) O.g.'.|.BXLXSXrXQ.~ ~.@X~.L o ).OXnXiXXXT.XX4X).Y.s.y.y.4.[ Y z { [ O     ; 7 s 6 , - , > ",
"1X2X).).k.1.g.{ 7 U.Q I q w w W e w P Q @.I.'.FXGXZXZXnXY.0.0.| 9 ~ bXSXCX4XE.k.E.(.T.8.1.g.u.' d L * Y ( X . $ 6 q s 1 - O - > ",
"5X}.XX_.E.c.] +.L   @.OXP w % % % w W U.mXVXFXpXFXnXBXAXVX).R 9 [ .X4XMXBXbX{. X`.l.k.l.f.' G l T 5.7 + +   ; 4 6 6 6 1 > ; > ; ",
"_.2X1X_.(.D.u.k.k.5 g K.% w e e P O.K.!.].^.x.W.yXbXpXpXoX].O.e .XmXoXyXyXyXyXW.W.g.' { ! l ' s U L.L       5 4 5 : ; ; ; ; ; - ",
"2X5XA.C.[.[.x.u.5.5.*   % @.W e W O.a.p.p.^.'.%XmXyXrXoX].Q.I.q { T.Q.Q.I.(.{.E.R.f.` 5.' f.~.9 $ 7 + + 3 $ 3 4 4 : - + ; 6 6 1 ",
"_._.G.eXH.C.A.7.3.5.x . . +XQ E O.O.I.R.f.g.b..XXX.XQ.E.{.a.W 8 O ) [ ~ { P { p.5.K.[ ~.[ d 7 X   X X 9 5 $ ; 3 1 ; ; - , s d l ",
"7.V.;X;X;XG.l.k.l.Z ' q . w 8 Q @.@.a.a.f.c.I.^.5.0.} [ ~ ~ @.@.) .X.XK.+Xd !.P.} @X8 ).T   9   9 + 4 7 3 ; 3 : ; $ O - 6 s z l ",
"$.N.Z.;X;XV.j.T.T.7.1./ 7     } /.w Q K.L.!.@.} R @...Q P.@.OX/. .mXmXe !.X U.+XI I 7 + o + + O 4 6 4 4 : ; ; ; # ; ; , 5 : ; ; ",
"#.9.F.6X;XG.2X_.T.k.3./ x ;   X e 4 X e 8 U.I P.} !.U.e @.% OX@.  ..E 9 8 e U.@.8 3 +   o + 3 5 4 6 4 : : ; # $ : : : , ; * & O ",
"$.#.-X6XS.G.}._._.l.3._ U U 3 X   X $ X I I  .@.E U./.Q   e 8 }   R R e  .w I   @ X   + * 3 5 5 6 1 ; ; ; ; ; $ : ; ; ; & & O + ",
"f >.e.r.V.V._._.3X5.3.1./ z l 7 4 $ $ X 3 X $ 7 4 @.e @.w @.I @.3 Y L 9 8     X + X ; 4 6 7 5 ; : ; ; ; ; : : ; + - * O o O O * ",
"D D %.F %.q.B.).(.x.l.s.` d s 6 q w 3 $ X # X   %   .   $ X $ X + +       . $ w 4 4 6 5 5 6 , ; : , ; : , 5 5 5 * ; ; + O O O + ",
"d d C i B *.8.x.B.(._.5.! Z n 6 ; 4 q 4 4 ; % $ $ $ $ $ # X O $ $ X 3 7 7 q 4 4 3 4 5 6 : 1 6 : : : 6 5 : 5 ; , ; : * O O O O + ",
"t t t N k y _ D x.}.].s.8.! Z h 0 : # 4 : 3 # w 4 q 4 4 w P 7 7 L z z 5 7 6 6 q : ; ; 4 6 1 1 ; , 5 6 , : : ; ; & * + O O # + + ",
"9 5 = = > t V S 1.C.k.Y.k.^ n c q 2 : 1 # 4 6 O 4 % ; z 4 w n q w l 7 P 7 q : : 6 ; ; 6 l 1 ; , * , , : * & * * @ O O o . O o . ",
"* * * * & > , p H C 3.Y.d.5.1.c l 1 2 2 1 7 q # & : : ; 1 z z q z l q l q 1 ; ; 1 1 1 : 1 1 : ; * , 5 ; * & @ + O O O O . @ O . ",
"9 9 * * * * > , p p Z _ D ! _ G n l q 1 < 1 1 - : : : ; 1 q q 6 6 : : 6 7 1 ; : 7 6 ; > ; : 1 ; ; * * * * o O & + O @ @ . . . . ",
"9 9 * * * * = > 2 u c c , t Z _ / M z h 6 1 1 ; 6 , ; , 4 1 6 6 ; : : ; 1 1 6 1 6 , ; ; 1 , : ; & * * & O O @ O O . . . . .     ",
"X + + * * ; , = * t t , , , u z Z G Z c c q , 1 5 : ; ; : 6 6 6 : 1 : : : 7 s 6 1 ; ; : : : ; o @ O & O @ O . @ o . . . . . . . ",
"  . + + * * * * * & & & & & * , c v v v v l 1 , , , : ; : 6 6 : % q : ; : 4 1 1 : ; ; ; : # O o o O O O o O . .     X   X X   X ",
"O O O O * * * * * , & O & O + 5 2 u h c Z p s 1 1 1 5 ; : 1 6 : 2 : ; # & ; ; ; ; - O O O O . o o O O   @ @ . .         o       ",
". O + & @ @ 9 * * * & O o o @ * > > t s s u s , 5 , ; ; % : $ # # $ # # O # O ; # O O o . . . . . .     . . o     o             ",
". O # # = * = 9 * @ O O o o @ + = & > a , , 1 6 , & O * # # # # # . O # O O o O . O # o . . . . . . . . . . .                   "
};
