/* XPM */
static char *c077694933dc4a72a307bfcdb1b163a0[] = {
/* columns rows colors chars-per-pixel */
"64 64 28 1 ",
"  c black",
". c #626262",
"X c #6C6C6C",
"o c #7B7B7B",
"O c gray28",
"+ c #565656",
"@ c #2D2D2D",
"# c #151515",
"$ c gray13",
"% c gray24",
"& c #868686",
"* c #89532D",
"= c #3D2D0D",
"- c #784C25",
"; c #8D5631",
": c #7F4F29",
"> c #704421",
", c #65401E",
"< c #5E3D19",
"1 c #4F3515",
"2 c #9E6238",
"3 c #A5693D",
"4 c #945B35",
"5 c #473111",
"6 c #1E1503",
"7 c #35250D",
"8 c #2D2109",
"9 c white",
/* pixels */
"                                                                ",
"                                                                ",
"                                                                ",
"                                                                ",
"                                                                ",
"                                                                ",
"                                                                ",
"                                                                ",
"                                                                ",
"                                                                ",
"                                                                ",
"                                                                ",
"                                                                ",
"                                                                ",
"                                                                ",
"                                                                ",
"                                                                ",
"                                                                ",
"                                                                ",
"                   ...........XXXXXXXXoooo                      ",
"                   ...........XXXXXXXXoooo                      ",
"                 X.OOOOOOOOOOOOOO++++++...ooX                   ",
"                XoO@@####$$$$$$$$$@@%%%%%O..O.                  ",
"                XXo&&&ooXXXXXX.....+++++OO%%@@                  ",
"                XXo&&&ooXXXXXX.....+++++OO%%@@                  ",
"              ***XXoooXX....+++++OOO%%%%@@@@@==                 ",
"              --;:***->>>,,,,,<<<<1111=======1=                 ",
"              --;:***->>>,,,,,<<<<1111=======1=                 ",
"             *--;;233*322;;:44;**:,<>>,,5,<<==1=                ",
"             -;;-23;;4322::-44;**:,<>>>,<1,,<=1=                ",
"             -;;-23**3222:::44;**:>1>>>>,5,,<=1%                ",
"             -;;-23**3222:::44;**:>1>>>>,5,,<=1%                ",
"            O+XXo.3**3224::44;*::->1>>>>,5%%%%%@                ",
"            O.XXXoo&&oXXXXX......++++++OOOOO@@@@==              ",
"            OXXXXXXoo....+++++OOOOOOOO%%%%@@@@@@==              ",
"            OXXXXXXoo....+++++OOOOOOOO%%%%@@@@@@==              ",
"            -,OO+.XXX....+++++OOOOOOOO%%%%%%@@@1==              ",
"            -;--2;;11*:->==,,,<<<<<611====5511=1==              ",
"            -;--233;;3222::4;**::->1>>>>,<5511=1==              ",
"            -;--233;;3222::4;**::->1>>>>,<5511=1==              ",
"            -;--233;;3222::4;**::->1>>>>,<5511=1==              ",
"            -;--233;;3222--4;**::->1>>>>,<5511=1==              ",
"            -;--233;;3222--4;**::->1>>>>,<5511=1==              ",
"            -;--233;;3222--4;**::->1>>>>,<5511=1==              ",
"            -;--233;;3222--4;**::->1>>>>,<5511=1==              ",
"            -;--233;;3222--4;**::->1>>>>,<5511=1==              ",
"            X;--233**3222>>4;**::->1>>>>,<5511=%%%              ",
"            X;--233**3222>>4;**::->1>>>>,<5511=%%%              ",
"            .ooooX3**3222>>4;**::->1>>>>,<55%%%%@@              ",
"            +XXXXo&ooXXXXXX......++++++OOOOO%@@@                ",
"            O+..XXoXX....+++++OOOOOOOO%%%%%%@@@@77              ",
"            O+..XXoXX....+++++OOOOOOOO%%%%%%@@@@77              ",
"             ,OO+++......+++++OOOOOOOO%%%%%%777511              ",
"             --->>>>>>><<88<<1111116111117771=1=11              ",
"             --->>>>>>><<88<<1111116111117771=1=11              ",
"             -;;-43**344*,,*:::::->1>>>,<=111=1=                ",
"              --;;2--444*,,-:::::-<1>>>,<=111=1=                ",
"              ..;-;;;-44*,,>:::-->11>>>,1=11=1=                 ",
"              ..;-;;;-44*,,>:::-->11>>>,1=11=1=                 ",
"              ..o&o;;-***>>,----->1<>>,<=1====@                 ",
"                XXXoooooXXXX..++++OOOO%%%@@@$#                  ",
"                 X.XXX...+++++OOOOO%%%%@@@$$$                   ",
"                 X.XXX...+++++OOOOO%%%%@@@$$$                   ",
"                   OOOOOO%%%%%%@@@@@$$$$$$                      "
};
