/* XPM */
static char *_9d4a55c725249c2c21e531b138fbee0[] = {
/* columns rows colors chars-per-pixel */
"64 64 89 1 ",
"  c #1E0500",
". c #1E0C02",
"X c #210600",
"o c #250B01",
"O c #2A0D03",
"+ c #250F09",
"@ c #2D1106",
"# c #26130B",
"$ c #2C140C",
"% c #2D190E",
"& c #321306",
"* c #33160D",
"= c #3A170C",
"- c #33190E",
"; c #3C1B0E",
": c #2D1610",
"> c #2D1A12",
", c #311711",
"< c #341B13",
"1 c #3A1E14",
"2 c #351E19",
"3 c #3A1F19",
"4 c #362016",
"5 c #3C2116",
"6 c #352119",
"7 c #3D231A",
"8 c #3E291E",
"9 c #3D2621",
"0 c #3D2922",
"q c #401E14",
"w c #422316",
"e c #492516",
"r c #472816",
"t c #482917",
"y c #43261B",
"u c #492619",
"i c #45291D",
"p c #4B2B1D",
"a c #512C1D",
"s c #4F301E",
"d c #53321F",
"f c #422620",
"g c #452B22",
"h c #4B2D23",
"j c #442E2A",
"k c #4A2F29",
"l c #512F23",
"z c #473024",
"x c #4D3125",
"c c #463229",
"v c #4D322A",
"b c #533324",
"n c #593625",
"m c #573826",
"M c #5B3926",
"N c #53352A",
"B c #59362A",
"V c #55392C",
"C c #5B3A2C",
"Z c #4D3631",
"A c #4E3934",
"S c #513631",
"D c #553A33",
"F c #5C3D32",
"G c #543D39",
"H c #593D39",
"J c #623D2D",
"K c #683E2E",
"L c #623E31",
"P c #5D4135",
"I c #5C413A",
"U c #65412E",
"Y c #644234",
"T c #6A4434",
"R c #6C4937",
"E c #634539",
"W c #6B4639",
"Q c #66493B",
"! c #6C4A3B",
"~ c #734C3C",
"^ c #6F503E",
"/ c #75523F",
"( c #674F45",
") c #6F4F40",
"_ c #735143",
"` c #7B5443",
"' c #7D5C4D",
"] c #805B4B",
"[ c #806053",
/* pixels */
"mbp&5rsr8-@-@5hN8<NhyO458yf7>>>38g%8bmw-iyh5399@quqq$,22:+3w5w8i",
"mlp-5iiiii54o4gi3<vh3$777121>>#65i@8bb51yyyq,2<Oqhy3$2>>$$1i3iir",
"mxs;7ririVz5@58y<1Vh1<85y<<<>>:35g%8mbw5pyuq2,,@uhqq>9>::@<w5wiw",
"msswirii5mi--51g<1Nhyyw5y<*4<>:7yw-imbwwhfhf2,<,upy3202::,,y55gi",
"bdpriiri-<1-<53i--bl8r88y*<5>%,75i*8mayiyuhq2<11qpq1<g2:<<1gwwkr",
"bdsrir5r5O;8*<8y5*hht8r57=37%%*87i-8Vhwpyppu3<<qeuq1,g,:<31g7why",
"bdsw5i5i5&5w*-<78-Niiii5wqyw-<<5ri<iCxihfghh3<<qpey1<7<:1<1pwyyy",
"bdsrwr5iiixy73,iw-Vtiii5yqyy-455it<5Cxrhhuuhq,,upue1%3$:,<yiyhgp",
"dmtrrwi1hvf33--w5<bpkiiiwpi1%77ywz%iPpshippuf,quppw5,7$:<<yhylyp",
"nmsriwi5izy<311y5;byhiii1uy1%77yyh%iCppihhpwu,ypaau5$,$,<<wpuhpl",
"dmsri5iw5y7=331y7<bupiiiwuw<%87i8h*wCpphhpbeg=qanlyy<3:2%<yyplpp",
"mdsrrwy8-511113fw1xiiiiiyy5--8yyyh-iCphxhpbeh=paapp1@<>6@,hyphpp",
"ddddpwii13y3111yi<xiii8iyuq<<87yrx-iCphxbpbel;aauab5@2,,@<hplbpp",
"dddspyip,q33113gi4bpiizhqy31<8fgih*iCphxblbeuqaaabbw*772@3Nhhpph",
"dddspygh11y331ygi4xhiihh1yy<2gffih*iPpxxxhbeuybaepmy$,27$yhhppwa",
"Uddspuul13qq31yhi<Nhiihgqyy12f3qih@iCtpxhbneufnaueh7*>,3*ybNllqp",
"dddsstiz1113<fyhy;Vhyyhpyyy3%iffih%yFuhBNhBuuhlahqbw*h7w<wbkbxed",
"Udmbs8ip311qqqyhi-Nhpplyhy3<3ffghh-iFglNllBullplppNy*1w7<iNxbbpb",
"dUsshiii3<133fygi-miphNyhyy1<yfggz-wPhlNBlBulluppphy*y331wvxbMbn",
"ddssxpiyq,1y3yyyi<vphhlyyyk137ffgx<yFihNBlBqpluuw1hw1N33<wpbnMMJ",
"bddlppiiy,qy3yiii1Nyllhyvuf<fqfkkx<iF3gNlNBqaBlnwwly,v3<3qqlnMJT",
"mmbhxpiwf1fyy7ik85Vihhluhhk1fffhkz5iFquNNNBqeJnJqbhh*gq<fhfBBMJR",
"mbbbxhg8g13yfywgw5DplhhhyhS1ffffhv58CflNBNBqenbn;bhf=hf,fvaldJJ~",
"dmmmbhiwhq3yfywg85Fgllhhhhk,kkkkzV5wDhvhvlBaqnln=ulu,k33fBqanJJ~",
"mMmmxixyv1wgffyhi5Vhllhhhhk-hhhhiN5pPxhNBvlhqenBqfll,jf,3kvlBKKK",
"mmVNNwkhk3ygyyyhi<Czvbvhxhx;vhhhiN5zPxkNBlllqeBnqBll=j9,,3vqBnK]",
"mPVVx8ggk3ygyfwgi4FxNhhhxhh5vfhvzV5pYxhbSvllupBBqlBf,f:2,33qlKK]",
"mVmVNwkhx38fykyyw4FzhNlhxhi5vfhkxCwsPhhvFNllqlBBeKBk,3+23jkSlKK~",
"PmbPz8xxN77yfgyy84Fzvxhhxhi5vgglbCwlEvhNHSBvuhBNKWBl,j,299kNBL_]",
"mbbbx;izv77y3fyy55Fzvxhhxxw5NhkhdCpbEmkNLBSlfhBBKKKk,ff9j9ffNK_)",
"PvPPx%8zvyy71ygh85FhxvxhxNi8vhvlbPpbEBNNLSBlfhBNWKWl,99jjZkklW`]",
"mmxPP;ivZ777qggg74Fzxbbkzvi8kkvlbUpbTNlNSSSBfhBBWKLk,9jjjAHfSW]_",
"FDNFNyvhkkf33kff85PxhxxhhN5hhkhxbUpb!mmxHlBNflBBKLLk,kjjZZSSl~]]",
"VVNFvyNkkf33qkvky7FzhxxzhNyhNvkpbYtV!JVmHSBSfkHKKLLk*f9kjZHSlK~]",
"CVNCxiNvhg3qkSkl78FzzxzbhVixhNhhbTtmTJNVHBNBkNBWLLWl,kkkkSHBlK~]",
"CVVVxyhkkk3qkSkviwDhxxzvhVihivkxU!sbTMNFHSNNfkBKJLLf,HkkZSSHkKK~",
"VVmNhyhhlvqfvNvkiwVhxvxNixixhNhxC^bmRdnFHSBBfkLLBLWN=NkklSDLBJK]",
"bmVNhyhNkvqgkNlNk8DhxxxvzkwzixhVtWNmRalFLSHBfNFLLLLB=SfSSSSHBH~]",
"pbVVhygNhvfklhNvh8Vzhxvvmi7hhxxFwYhnRdlFHBBBlNLKWLLS=FNNBlHLLNW[",
"pbCVlhfNkNgvgylkx7VxkhkvN55hNNxCtTpM~JBLENFFhkBKKL)B*LLBBNLLLlL[",
"bbPmxrgxkNghyhhCh8VgzxkxSy1SNVxmVPsm~UMCLFFBhvn)KWLB*LNVNHLHKBW[",
"bmVVz8jhgvggyhNChwVizxkvCyyBmBxmCYzb~JMFLFHBfvnK)LLB=NNFNBBHWSL'",
"xmVVh5h7jkggyhBVxwNikvhkDfySSCbmCYsb~JMFLFLBfNFWLK(B@LIFkBBBILL_",
"smNvi8j7vggkyhNBx8NghxkhCyhFFVbVPQxs~KJCLLLBykJTLLLBOFDSSSSSLEL)",
"zpzxi702Z9fxykmVx5vghxkpSyhCFVbCCQxs~UCLEHLBflFKTJYVovvvSSNSHL)W",
"pipN8<,7097kyhNVx5xigkhfFqlVPmbCmTzs/UMLLBLlvNLKLJYhOZGASZZSHL!W",
"r5zv1%#967gkfNbNx5vhhkgyS1lNCmdCmPss~UnCLFLnBSJWRmBi$cZGAAvDHB)K",
"z5ij<6#>,7khyNbVx5NhhkhfV1vbFbxVxPis/UnJLHLlBBBKRUY1XZZ0AASFHN_K",
"z8<4>>#606jxhxmCz5Nhzhhhv8bNNzxVmPts!UmYJJLnLBFLUU'5XIGGZASSEM~~",
"z6#.#>%000xxhzmCz5NiizhhN7NVNiNVNPss)CCYLBLlLBBLMm_ioGDZZGDNLLWT",
"0%..6>>9c0xvhNmDi5vhiziwv5vNNzNVVPxx!PCMLBLnBNBFMP^xoSAZkGDVLTWT",
"8%.+66>9g8gxhhmFi5Niiziiz5vNzzNVVPsbEmmCJnKlBlBBUY_NOHAGZHNSLWTR",
"06#%>%#078khybNC85Niikgyz4bNhiNNVPxbYmBCCBLllhBBmP!z@IvISHSBLTKW",
"c0#%#+#67izhhhbVw4vi8ggyz-zxhgNvVPbmECCCCBLhlllLPUEs@QgDkHHFL)WL",
"c4#%%+#>00kipzxVi5vg8ggyg%hki8vxbPbmWBBFLBFpNvBHUYQx@IccSSHHL))K",
"z8686#>>7jziixxCi4vw88fy0%hz0iNxhPNVWBNBBBFlFNlBPYQVOPIGCvFLFKWW",
"g8600%+%6ggi8xbV77x886077>ggg8zNNFmNQVpbVVFuEHvlPYQNoPPPHSVFFTTW",
"z88z0#>:<7ggizxN85x584770#7v8izzxCxbYbpmFVFgHNkkPVQN.DzNHVhCCLTT",
"jg8z0>2%>6i8izxV58x76>606>7j4iimNPxxPbiNFVDgDNSkVYEx FIcVVvPLJLL",
"hz44066>>781-zmN54x8>#6z>6v848zzVPxsPxwxNVNhkkSfNEPz V(vxNhFCCTJ",
"8g%%07><668--xxb48x8%+>9>6Z645sssPzsPt5zNNNg7jZ7NNPV zZixx5xCPUm",
"g4<86<6<817-5zzN58z8>:296>09488zzPxxVswzZxvz9zZzzPPN gNzxzwxCYUm",
"i58i647>7<8<8him5808>699>:26488izPszPs5Nxhxg6jcZsPPc.xPzimzmCYCC",
"7847766:7>8-8hiz88c8>>26>>6<%858sPitxi7VvxZj1j00zPPv.PzzzztxCFbd"
};
