/* XPM */
static char *_579195190222[] = {
/* columns rows colors chars-per-pixel */
"64 64 245 2 ",
"   c #010C05",
".  c #000D0C",
"X  c #0B0E0D",
"o  c #000706",
"O  c #001404",
"+  c #001A04",
"@  c #01140D",
"#  c #0A110C",
"$  c #021A0C",
"%  c #0A1B0F",
"&  c #030C13",
"*  c #0A0D15",
"=  c #050D1C",
"-  c #090D1C",
";  c #120C16",
":  c #011412",
">  c #0A1214",
",  c #031A13",
"<  c #091D14",
"1  c #03131A",
"2  c #0A131C",
"3  c #051A19",
"4  c #0A1C1A",
"5  c #141D17",
"6  c #002302",
"7  c #002C01",
"8  c #02230A",
"9  c #022A0B",
"0  c #0A2709",
"q  c #043408",
"w  c #14360D",
"e  c #032214",
"r  c #0A2314",
"t  c #0B2A14",
"y  c #0D221B",
"u  c #0D2B1B",
"i  c #032717",
"p  c #13251B",
"a  c #122A1C",
"s  c #1B2D1B",
"d  c #132B15",
"f  c #0C3211",
"g  c #093917",
"h  c #1A3B1A",
"j  c #163717",
"k  c #10230D",
"l  c #233519",
"z  c #080E22",
"x  c #041121",
"c  c #0A1623",
"v  c #151D25",
"b  c #0E2320",
"n  c #132424",
"m  c #152B24",
"M  c #1A2B28",
"N  c #1B3423",
"B  c #1C332B",
"V  c #163625",
"C  c #1F3230",
"Z  c #233B27",
"A  c #263A37",
"S  c #272C26",
"D  c #064308",
"F  c #0B4917",
"G  c #1A4617",
"H  c #0D5714",
"J  c #165518",
"K  c #094E0B",
"L  c #254518",
"P  c #245D1C",
"I  c #1A661B",
"U  c #13740F",
"Y  c #24671D",
"T  c #23761C",
"R  c #34611E",
"E  c #184327",
"W  c #1A5422",
"Q  c #1C4733",
"!  c #284726",
"~  c #2B5425",
"^  c #2A4438",
"/  c #304938",
"(  c #335A2E",
")  c #1D6827",
"_  c #266927",
"`  c #29762B",
"'  c #327929",
"]  c #2A7436",
"[  c #357B3D",
"{  c #306833",
"}  c #4C7635",
"|  c #364945",
" . c #3C5448",
".. c #37524A",
"X. c #366F45",
"o. c #445B4D",
"O. c #435853",
"+. c #4D655A",
"@. c #536B58",
"#. c #5B775D",
"$. c #4A684B",
"%. c #4E6A61",
"&. c #5A7565",
"*. c #5E7C72",
"=. c #657D6B",
"-. c #647C75",
";. c #29901C",
":. c #1FA11D",
">. c #26A919",
",. c #29892A",
"<. c #38882A",
"1. c #378836",
"2. c #379535",
"3. c #30912F",
"4. c #3AB826",
"5. c #3CA737",
"6. c #36AE2C",
"7. c #499D2E",
"8. c #449835",
"9. c #538E32",
"0. c #45A328",
"q. c #4BA538",
"w. c #45B937",
"e. c #53B838",
"r. c #51AB36",
"t. c #3EC835",
"y. c #53C839",
"u. c #59D838",
"i. c #47CE3A",
"p. c #6BDD3D",
"a. c #54EF3C",
"s. c #64EB3D",
"d. c #398D41",
"f. c #499844",
"g. c #589241",
"h. c #488945",
"j. c #6C9C56",
"k. c #709358",
"l. c #4BA847",
"z. c #59A745",
"x. c #4CB846",
"c. c #55B844",
"v. c #59AB55",
"b. c #68AB48",
"n. c #68B547",
"m. c #69A858",
"M. c #76B858",
"N. c #70AA53",
"B. c #678467",
"V. c #799A6A",
"C. c #6B8373",
"Z. c #69847A",
"A. c #738B79",
"S. c #789677",
"D. c #6F8D69",
"F. c #7EBF65",
"G. c #5A9960",
"H. c #4FC745",
"J. c #57C345",
"K. c #58D746",
"L. c #5DC556",
"P. c #65C745",
"I. c #67D847",
"U. c #62D653",
"Y. c #78D857",
"T. c #73CA55",
"R. c #5DE647",
"E. c #5AF341",
"W. c #68E746",
"Q. c #6CF546",
"!. c #74EB5C",
"~. c #79F64F",
"^. c #7AF862",
"/. c #87AA5E",
"(. c #839D75",
"). c #8CAB75",
"_. c #86CE5B",
"`. c #81E957",
"'. c #90D36C",
"]. c #A0CC7F",
"[. c #88F866",
"{. c #92FB6E",
"}. c #97FC76",
"|. c #91F06E",
" X c #A4FE79",
".X c #A3E47B",
"XX c #748D82",
"oX c #7A9388",
"OX c #839C85",
"+X c #869C8B",
"@X c #869C93",
"#X c #8BA38A",
"$X c #95AC8D",
"%X c #98B388",
"&X c #88A395",
"*X c #93AC93",
"=X c #98A99B",
"-X c #9CB49B",
";X c #8EB286",
":X c #A4B99B",
">X c #A5BA85",
",X c #9CB3A2",
"<X c #9CB6A8",
"1X c #A2B5A3",
"2X c #A6BBA8",
"3X c #B6BAAF",
"4X c #ACC395",
"5X c #9CE581",
"6X c #A7FA87",
"7X c #ADFF92",
"8X c #B7FD95",
"9X c #B4FF8A",
"0X c #ABC3AC",
"qX c #AAC3A7",
"wX c #B5C9A6",
"eX c #B6D3A8",
"rX c #ABC3B4",
"tX c #B5CABA",
"yX c #B5C7B6",
"uX c #BBD5B9",
"iX c #BFFFA7",
"pX c #BAE0A3",
"aX c #9BC980",
"sX c #C0FF94",
"dX c #C3C9BA",
"fX c #C6D7BE",
"gX c #C2D5A8",
"hX c #C3FBA4",
"jX c #C7F9B2",
"kX c #BED5C4",
"lX c #C7D9C8",
"zX c #D1D7CC",
"xX c #CEE6D8",
"cX c #D8E7D7",
"vX c #DDF3D8",
"bX c #CFE6C9",
"nX c #E5F3DC",
"mX c #DDF4E8",
"MX c #E6E9E1",
"NX c #E8F7E7",
"BX c #F5FBEC",
"VX c #F5FEF3",
"CX c #FCFDF3",
"ZX c #FBFDF7",
"AX c #EBFFF3",
/* pixels */
": : @ : : @ : : : @ @ : : @ : : : : : : : : : : : : : : : : : : : : : : : : : : : : : : : : : : : : : 1 1 : : : : : : : : : : : ",
"@ : : @ @ : : @ @ : : : @ : : @ : : : : : : : : : : : : : : : : : : : : : : : : : : : : : : : : 1 1 1 : : : : & : : : : : : : : ",
"@ : : @ @ : : @ : : : @ @ : : @ : : : : : : : : : : : : : : : : : : : : : : 1 @ : : : : : : : : : : : : : : : 1 : : : : : : : : ",
": @ : : : : @ : : @ @ : : : @ : : : 1 : : : : : : : : : : : : : : : : : : : : : : : : : : : : : : & : : & : : : : : : : : : : : ",
": @ @ : : @ @ : : : @ : @ @ : : : : : : : : : : : : : : : : : : : : : : : : : : : : : : : : : : : : : : : : : : : : : : : : : : ",
": : : @ @ : : : @ @ : : : : : @ : : : : : : : : : : : : : : : : : : : : : : : : : : : : : : : : : : : : : : : : : : : : : : : : ",
"@ : : : : : : @ : : : @ @ : @ : : : : : : : : : : : : : : : : : : : : : : : : : : : : : : : : : : : : : : : @ @ : : : : : : : : ",
": @ @ : : @ @ : : @ : @ : : @ : : : : : : : : : : : : : 1 @ : : : : : : : : : : : : : : : : : : @ @ @ @ @ : : : : : : : : : : : ",
": @ @ : : @ @ : @ : @ @ : : : : : : : : : : : : : : : : : : : : : : : : : : : : . : : : : : : @ @ @ @ @ @ : : @ : : : : : : : 1 ",
": : : @ : : : @ : @ : @ @ : @ : : : , : : : : : : : : : : : : : : : : : : : : : : : : : : : : @ @ @ $ @ , $ : # : @ : : : & : : ",
"@ : : : @ : : : , : , # : @ : : 1 : : : : : > , : : : : : : : : : : : : : : : : : : : : : : : : @ $ $ @ # $ , , : : : : : 1 : : ",
": @ @ : : @ @ : : : : , : , : @ : : : : : : : : : : @ 1 : : : : : @ 1 : : : : : : : : . : : : : @ O O @ @ @ @ @ @ : : : : : & : ",
": : @ : : : @ : : : : > , : : : : : : : : : : : : : : : : : : : : : : : : : : : : . @ : : : > : $ @ @ O O @ @ # : @ : : : : & 1 ",
"@ : : @ @ : : @ @ : , 3 < > : , , > : : : @ : : : : : : : : : : : : : : : : : : : : : : , > 3 4 % k < % % @ @ $ @ : : : : : : 1 ",
"@ : : @ : @ : : , < 4 5 4 p y 4 3 3 : : : : : : : @ : : : : : @ : @ : : : : : : : 1 : , 3 4 b a y d d p y < , % @ : : : 1 & : 1 ",
": : : : : @ # : 4 5 p p m a a a e < < % @ : : 1 1 1 : : @ : : : : 1 : @ @ : : 1 3 : : , e r a a s s s s s p 4 3 @ : : @ : : : : ",
"& c 3 @ , , % p 5 S S l s S h 0 f j 0 0   < 3 = x = 1 @ @ @ : 1 - > @ @ $ @ & 2 1 c 8 9 q q l L w L Z l M S M n n . : 4 : : > & ",
"2 4 > . : 8 % + k s l ! ~ R R L g g 7 q + O 1 c x x : @ O O @ 1 - 1 @ + + @ 1 - 1 , 8 q q K L L R R R R ~ V u i , @ : : : . > > ",
"# O @ O , V E g W J ' 8.7.7.0.7.} X.G q 6 6 @ c x = : # # @ : 2 - 2 @ + + @ * 1 1 , 9 q D Y } 9.r.0.9.q.2.` H F D g u e : : : > ",
"+ O @ $ , ^ X.] d.q.e.P.p.p.u.e.f.G.h.I D q @ : 1 2 * # # # > * - - @ + $ $ 1 1 c $ q J ' 9.k.b.M.P.I.I.K.4.:.:.) ] Q e 3 : . : ",
"+ O $ $ $ E X.d.x.K.W.a.s.`.I.e.` d.m.8._ D + $ 1 1 * # # X * - - 2 : @ + @ : : y + D ' z.N.g.9.n.Y.`.Q.a.a.i.t.,.] F + , 1 @ , ",
"+ @ , : @ g ] l.y.W.Q.Q.`.[._.r.<.I l.z.<.I 7 8 : 1 > X X # * - - = : + + @ : : 8 q _ 2.n.n.9.} b.`.[.~.a.a.a.t.5._ g $ , 3 $ : ",
"@ , 1 1 , t _ x.u.p.s.`.{. XaXj.m.<.T.r.7.,.H + : : > X # > 1 1 = = : $ + @ : @ + W 8.7.p./.9.b./.].9X|.~.a.a.H.l.) i , : : $ $ ",
"1 1 1 1 4 8 J q.u.s.s.[.sXhX4XV.m.T.hX|.0.8._ 6 $ : : : # # : 1 2 1 @ $ $ @ # O 6 Y 8.q.|.sX_./.).>XsX6X^.s.u.H.d.W i 1 1 & $ $ ",
"x x x c 2 $ F <.e.W.W. X8XjXuX$Xj.T.hX Xy.n.Y q + : , > @ : , 3 1 = : $ $ $ O O q ' c.P.}.sX.X/.>XeXiX7X}.R.R.w.1.F : c c 2 : , ",
"1 x z z c e f I 0.I.W.}.7XiXeX).N.b. X XY.P.' J + : : : : , , , 1 1 : : @ @ @ O G 1.c.!.{.}.'./.aXeXiX7X}.K.K.5.) i , z - = , : ",
"> * - - c c i D ,.x.K.[.}.6X'.b.n./.|. X`.P.2.J 6 : : 1 : : , , 1 : : @ @ @ @ + W 1.H.!.{.|.'.].F.5X7X5X^.K.w.;.D 9 > z - = 2 1 ",
"  * - & x x i 9 K ,.w.U.!.[.K.;.b..X9X X`.J.l.) 8 : 1 > , $ , , : 1 @ @ @ @ @ 6 _ f.H.R.}.9X9X'.l.T.^.!.R.t.:.K 7 6 3 2 = - 2 & ",
"  % > & 1 1 3 i 7 H 1.5.J.U.H.6.r..X X[.p.e.l.) 9 3 = * > @ $ : : : @ : : O : 8 ) d.w.t.!.6X5XM.x.U.U.H.6.3.H 7 6 $ : * & > 2 . ",
"  % , : : 1 1 i , F { ` 3.x.x.x.m.'.T.p.y.4.2.] i 1 & ; > . $ , , : @ % : @ , i ] 3.6.4.K.Y.'.F.n.L.x.1.` [ F 6 8 @ & X . 1 %   ",
"O : $ @ 3 : : 4 3 m  .E W ) ] d.v.v.e.i.4.>.;.[ g 1 * ; ; X . : : 1 @ : : @ < i [ 3.:.>.4.r.b.m.h.1.{ W Z o.M - c * : , O + + O ",
", % $ $ , : @ 2 * v | 5 , $ 9 F F Y T U U U I ] u 1 * * ; X . > : @ @ , : : 3 u ) ) U U U ` P G D q 6 : c O.v - - & 1 4 @ + + + ",
"1 O , , O 3 4 o 3 n M 4 @ . @ $ @ + 6 6 6 6 8 e 3 1 2 2 1 1 1 1 1 1 : 1 1 3 1 3 e e 8 6 6 + $ O O O O : 4 n n 2 & b 2 . : , : , ",
"@ 1 3 , . o : v : 3 v 3 1 : 1 : : : : : 1 3 1 1 1 1 1 1 1 1 & 1 1 : : 1 1 : 1 1 : 1 1 1 1 3 3 1 : 1 1 : > 3 2 > : . . 3 p . . : ",
". 3 @ o : 4 3 : & : : : : : : : : : : : : : : : : 1 : : : : : : : @ : : : , : , 1 @ : : : 1 1 : 1 > : : . : : : 3 < 3 : . : > @ ",
"> : o 1 A A , @ 3 > : & . : 1 3 > : : : : : @ : : : : $ @ $ $ O $ $ $ $ , $ $ : : , , : : : : : @ , > , & : : : 3 n A n : 3 b . ",
"3 : > ^ O.M . 4 : : : : : . : : , : , : $ $ : : $ $ % 8 + + 0 0 6 8 8 6 8 + 8 $ $ $ : $ : : @ : : : : : : : : . . 3 ^ O.B @ . : ",
". , c M A A v . . @ : > : . @ : : $ $ , , e 8 8 0 8 8 0 0 0 0 0 0 9 9 9 9 8 8 8 8 $ 8 , 8 $ $ $ , . @ : > : @ . & v A A n 1 : : ",
". , 3 . 1 A | b y : : : , : @ : , , e e e r d t k w w w w w w w w F f f f f f f i t t r r e < , , : : : : $ , y B A B @ . , , : ",
"3 o : , . 4 ..&.A n : @ $ : : , e i i i u j j j h h h j L L L l L G G G G h h h j j j d t r r 8 , , , , , : b A O.| 4 @ 4 :   > ",
": : : 4 : . M  .-.=.O.| A A 2 p e V g u u ! h ! L ~ ! ( } (.D.(.V.B.k.$.{ ~ ~ ! h h Z h % s B r b A b B | | ..+...B : @ > : @ @ ",
"> : : 1 : . 3 C O.XX,XmXA.-.OXXXZ.@.&.&.B.&.D.&.=.D.(.(.).).$X>X;X;X;XV.S.V.B.#.B.B.#.&.=.@.@.&.%.*.%.*.oX-.%.O.B 4 . @ : : # : ",
"3 : : : : @ @ , A O.XXxXXX@XxXxXrXA.&XrXtX-X2X#X$X$XwXwXdX4XgX>X:XeXeXeXqXwX$X*X;X:X-X-X<XS.Z.=XrXoX*.XXoX*...m : @ . # , @ @ < ",
": : , : : , : @ , n / -.@X,XxXAXtX&X,XcXvXmXlX-XfX:X3XbXBXnXcX>X4XvXvXvXfXqX-XdX*XlXmXcXuX+XoXkXAX<XXX*.%.| V : @ @ @ , , # @ : ",
": 1 3 : : , , , O , B / A.&X2XAXrXtXyXxXNXVXlX1XMXlX3XNXCXCXBXdXfXBXCXBXnX2XtXvX=XcXAXAXkX=X<XrXxXoXXX*.| b i $ , : : : , # @ @ ",
"1 3 , : . : : : t @ r a m @.C.tX2XlXbXyXNXVXcX1XMXcXdXNXBXCXMXdXzXVXCXBXBXfXMXMX2XvXZXxXyXrX3X=XoX*.O.Q i @ @ , , : O . # : @ @ ",
": : : : : @ $ : , O e u $ ^ / @.+XyXcX3XzXBXNX3XMXCXzXMXCXZXCX3XdXCXBXMXcXzXBXzX3XZXNX3XkXkX=X-.%.Q Q b : e : y @ @ @ O @ , : # ",
"3 : & , , : : $ @ , p O p $ N S o.A.1X2X=XcXcX=XcXZXcXlXBXZXBX=X3XCXZXMXlXMXZXzX,XNXzX@X,X,X%.O.^ c i 3 e b O O @ @ < : : @ : # ",
": : : : : : : : : : , , 3 y y y a Z o.C.*X1X<X*XkXvXmXyX0XAXNX#X:XAXmXrXkXNXmXrX,X1X<X@XC. .B a i 4 4 3 3 : : @ : : : : : @ : : ",
": : : : : : : : : : > , 3 4 4 y y u N ^ o.&.S.#XqXuXbXqX,XuXuXV.*XbXuX*X0XkXfX2X&XXX&. .B u y u 3 3 3 3 : : : : : : : : : : : : ",
": : : : : : : : : : : : : , , 3 r r r r t Z / o.A.#X,XqX-X4X-XD.A.-X2XqXtX-XOX-.$.| N r , , , , , : : , : : : : : : : : : : : : ",
": : : : : : : : , : : : : : > , @ < t y r r d d V / @.D.oX$X-X*X-X,XoXS.C.$.^ Z t r , e y y 3 : : : : : : : : @ : : : : : : : : ",
": : : : : : @ : : 1 : : : : , : : $ $ : $ % % e + 8 t Z / $.&.B.B.&./ ! s e , , , : , , , : , : 1 @ @ : : : : 1 : : : : : : : : ",
": : : : : : 1 : : : : : : : : 3 , @ @ O @ : $ , % r $ O + % r % O e % r r , t O : < , : . : : : @ : : : : : : : : : : : : : : : ",
": : : : : : : : : : : : : : : : , : : : : , $ O   @ $ % < % O   , $   @ O . , O @ : , 3 : : : 1 : : & : : : : : : : : : : : : : ",
": : : : : : : : : : : : : : : : : : : : : $ : : $ , @ O @ O O , , @   , @ . > . : : : : : : : @ : : : : : : : : : : : : : : : : ",
": : : : : @ : : : : : : : : : : : : : : : : : : @ : : @ @ @ @ @ : @ : : : : : : : : : : : : : : : : : : : : : : : : : : : : : : ",
": : : : : 1 : : : : : : : : : : : : : 1 : : : : : : : $ : : : @ : : : : : : : : : : 1 : : : 1 : : : : : : : : : : : : : : : : : ",
": : : : : : : : : : : : : : : : : : : : : : : : : : : : : : : : : : 1 : : : : : 1 : : : : : 1 : : : : : : : : : : : : : : : : : ",
": : : : : : : : : : : : : : : : : : : : : : : : : : : : : : : : : : : : & : 1 : : & : : 1 @ : : 1 : : : : : : : : : 1 @ : : : : ",
": : : : : : : : : : : : : : : : @ : : @ : : : : : : : : : : & : : 1 : : : : : : : : : : : : : : @ : : : : : : : : : : : : : : : ",
": : : : : : : : : : : : : : : : : @ @ : : : : : : : : : : : : 1 : : : : : : : : : : @ : : @ : @ : : : : : : : : : : : : : : : : ",
": : : : : : : : : : : : : : : : : : @ : : @ @ : : : : : : : : : : : : : : : @ : : : : : @ @ : : : : : : : : : : 1 @ : : : : : : ",
": : : : : : : : : : : : : : : : @ : : @ : : : : : : : : 1 : & : : : : : : : : @ @ : @ : @ @ @ @ : : : : : : : : : : : : : : : : "
};
