/* XPM */
static char *result[] = {
/* columns rows colors chars-per-pixel */
"64 64 163 2 ",
"   c black",
".  c #010000",
"X  c #000001",
"o  c #010001",
"O  c #010101",
"+  c #020000",
"@  c #030000",
"#  c #020100",
"$  c #030100",
"%  c #020101",
"&  c #010102",
"*  c #030202",
"=  c #040000",
"-  c #050100",
";  c #050101",
":  c #060101",
">  c #050201",
",  c #060200",
"<  c #060201",
"1  c #070301",
"2  c #070302",
"3  c #080301",
"4  c #0A0401",
"5  c #0B0401",
"6  c #0C0401",
"7  c #0C0501",
"8  c #0D0501",
"9  c #0E0501",
"0  c #0F0501",
"q  c #0D0602",
"w  c #130701",
"e  c #160902",
"r  c #180901",
"t  c #180902",
"y  c #1B0A02",
"u  c #1B0B03",
"i  c #1D0B03",
"p  c #1E0B02",
"a  c #1F0C02",
"s  c #250E02",
"d  c #250E03",
"f  c #260F02",
"g  c #270F02",
"h  c #250F04",
"j  c #281003",
"k  c #2F1102",
"l  c #2E1203",
"z  c #2F1204",
"x  c #2F1304",
"c  c #311303",
"v  c #341402",
"b  c #351402",
"n  c #341403",
"m  c #301204",
"M  c #411802",
"N  c #411903",
"B  c #421902",
"V  c #421903",
"C  c #421A03",
"Z  c #441B03",
"A  c #441A04",
"S  c #451B04",
"D  c #4B1D03",
"F  c #522003",
"G  c #552103",
"H  c #562102",
"J  c #562103",
"K  c #552104",
"L  c #542306",
"P  c #582204",
"I  c #5E2404",
"U  c #622703",
"Y  c #652703",
"T  c #612604",
"R  c #612605",
"E  c #672803",
"W  c #652804",
"Q  c #662A07",
"!  c #682803",
"~  c #692803",
"^  c #692903",
"/  c #6A2903",
"(  c #6B2903",
")  c #6C2903",
"_  c #6D2A03",
"`  c #692905",
"'  c #6A2904",
"]  c #6B2904",
"[  c #692A04",
"{  c #682B07",
"}  c #6A2B07",
"|  c #6D2A04",
" . c #6D2B05",
".. c #6E2A04",
"X. c #6E2B04",
"o. c #6F2B04",
"O. c #6C2C08",
"+. c #732D04",
"@. c #772E06",
"#. c #7A3003",
"$. c #7B3003",
"%. c #7C3103",
"&. c #793004",
"*. c #7B3005",
"=. c #7F3104",
"-. c #7E3105",
";. c #7F3105",
":. c #783208",
">. c #7D3309",
",. c #803104",
"<. c #803105",
"1. c #8E3703",
"2. c #8A3504",
"3. c #8F3804",
"4. c #8D3908",
"5. c #903701",
"6. c #903702",
"7. c #913702",
"8. c #903703",
"9. c #923801",
"0. c #913803",
"q. c #923802",
"w. c #923803",
"e. c #9F3D02",
"r. c #A13D02",
"t. c #A13E02",
"y. c #A03E03",
"u. c #A23E02",
"i. c #A84002",
"p. c #A84102",
"a. c #AB4202",
"s. c #AF4301",
"d. c #AD4202",
"f. c #AF4302",
"g. c #AE4303",
"h. c #B04303",
"j. c #B24401",
"k. c #B34401",
"l. c #B34402",
"z. c #B54400",
"x. c #B44501",
"c. c #B54501",
"v. c #B64400",
"b. c #B64500",
"n. c #B74500",
"m. c #B64501",
"M. c #B74501",
"N. c #B74601",
"B. c #B44502",
"V. c #B54502",
"C. c #B64502",
"Z. c #B54603",
"A. c #B64602",
"S. c #B14606",
"D. c #B24707",
"F. c #B34707",
"G. c #B84500",
"H. c #B94500",
"J. c #B94600",
"K. c #B84601",
"L. c #BA4600",
"P. c #B34807",
"I. c #B44807",
/* pixels */
"O                                                                                                                               ",
"* # # # # # # # # # # # # # # # # # # # # # # # # # # # . . . . # # # # # # # # # # # # # # # # # # # # # # # # # # # # . . . . ",
":.$.$.#.$.$.#.$.#.$.$.#.$.$.#.$.#.$.$.#.$.#.$.$.#.$.$.&.c @ = 6 U %.#.$.$.#.$.$.$.$.#.$.$.#.$.#.$.$.#.$.$.#.$.#.$.$.$.&.k @ - - ",
"I.G.G.G.G.G.G.G.G.G.G.G.G.G.G.G.G.G.G.G.G.G.G.G.G.G.G.C.S     7 9.L.G.G.G.G.G.G.G.G.G.G.G.G.G.G.G.G.G.G.G.G.G.G.G.G.G.V.B     . ",
"S.z.z.z.z.z.z.z.z.z.z.z.z.z.z.z.z.z.z.z.z.z.z.z.z.z.z.l.A     5 5.n.z.z.z.z.z.z.z.z.z.z.z.z.z.z.z.z.z.z.z.z.z.z.z.z.z.j.M       ",
"S.z.z.z.z.z.z.z.z.z.z.z.z.z.z.z.z.z.z.z.z.z.z.z.z.z.z.k.A     5 5.n.z.z.z.z.z.z.z.z.z.z.z.z.z.z.z.z.z.z.z.z.z.z.z.z.z.j.M       ",
"S.z.z.z.z.z.z.z.z.z.z.z.z.z.z.z.z.z.z.z.z.z.z.z.z.z.z.k.A     5 5.n.z.z.z.z.z.z.z.z.z.z.z.z.z.z.z.z.z.z.z.z.z.z.z.z.z.j.M       ",
"S.z.z.z.z.z.z.z.z.z.z.z.z.z.z.z.z.z.z.z.z.z.z.z.z.z.z.k.A     5 5.n.z.z.z.z.z.z.z.z.z.z.z.z.z.z.z.z.z.z.z.z.z.z.z.z.z.j.M       ",
"S.z.z.z.z.z.z.z.z.z.z.z.z.z.z.z.z.z.z.z.z.z.z.z.z.z.z.k.A     5 5.n.z.z.z.z.z.z.z.z.z.z.z.z.z.z.z.z.z.z.z.z.z.z.z.z.z.j.M       ",
"S.z.z.z.z.z.z.z.z.z.z.z.z.z.z.z.z.z.z.z.z.z.z.z.z.z.z.k.A     5 5.n.z.z.z.z.z.z.z.z.z.z.z.z.z.z.z.z.z.z.z.z.z.z.z.z.z.j.M       ",
"S.z.z.z.z.z.z.z.z.z.z.z.z.z.z.z.z.z.z.z.z.z.z.z.z.z.z.k.A     5 5.n.z.z.z.z.z.z.z.z.z.z.z.z.z.z.z.z.z.z.z.z.z.z.z.z.z.j.M       ",
"S.z.z.z.z.z.z.z.z.z.z.z.z.z.z.z.z.z.z.z.z.z.z.z.z.z.z.k.A     5 5.n.z.z.z.z.z.z.z.z.z.z.z.z.z.z.z.z.z.z.z.z.z.z.z.z.z.j.M       ",
"P.G.G.G.G.G.G.G.G.G.G.G.G.G.G.G.G.G.G.G.G.G.G.G.G.G.G.C.S     7 q.L.G.G.G.G.G.G.G.G.G.G.G.G.G.G.G.G.G.G.G.G.G.G.G.G.G.V.B       ",
"} ) ) ) ) ) ) ) ) ) ) ) ) ) ) ) ) ) ) ) ) ) ) ) ) ) ) ] j     1 J _ ) ) ) ) ) ) ) ) ) ) ) ) ) ) ) ) ) ) ) ) ) ) ) ) ) ' g       ",
"% . . . . . . . . . . . . . . . . . . . . . . . . . . .         . . . . . . . . . . . . . . . . . . . . . . . . . . . .         ",
"&                                                                                                                               ",
"%   . . . . . . . . .         . . . . . . . . . . . . . . . . . . . . . . . . . . . . .           . . . . . . . . . . . . . . . ",
"{ / / / / / / / / / ^ f     3 K ) / / / / / / / / / / / / / / / / / / / / / / / / / / / W u     9 I ( / / / / / / / / / / / / [ ",
"P.G.G.G.G.G.G.G.G.G.m.C     9 w.L.G.G.G.G.G.G.G.G.G.G.G.G.G.G.G.G.G.G.G.G.G.G.G.G.G.G.G.h.m     r t.J.G.G.G.G.G.G.G.G.G.G.G.G.A.",
"S.z.z.z.z.z.z.z.z.z.k.N     8 6.n.z.z.z.z.z.z.z.z.z.z.z.z.z.z.z.z.z.z.z.z.z.z.z.z.z.z.v.d.z     r e.v.z.z.z.z.z.z.z.z.z.z.z.z.B.",
"S.z.z.z.z.z.z.z.z.z.k.N     8 6.n.z.z.z.z.z.z.z.z.z.z.z.z.z.z.z.z.z.z.z.z.z.z.z.z.z.z.v.d.z     r e.v.z.z.z.z.z.z.z.z.z.z.z.z.B.",
"S.z.z.z.z.z.z.z.z.z.k.N     8 6.n.z.z.z.z.z.z.z.z.z.z.z.z.z.z.z.z.z.z.z.z.z.z.z.z.z.z.v.d.z     r e.v.z.z.z.z.z.z.z.z.z.z.z.z.B.",
"S.z.z.z.z.z.z.z.z.z.k.N     8 6.n.z.z.z.z.z.z.z.z.z.z.z.z.z.z.z.z.z.z.z.z.z.z.z.z.z.z.v.d.z     r e.v.z.z.z.z.z.z.z.z.z.z.z.z.B.",
"S.z.z.z.z.z.z.z.z.z.k.N     8 6.n.z.z.z.z.z.z.z.z.z.z.z.z.z.z.z.z.z.z.z.z.z.z.z.z.z.z.v.d.z     r e.v.z.z.z.z.z.z.z.z.z.z.z.z.B.",
"S.z.z.z.z.z.z.z.z.z.k.N     8 6.n.z.z.z.z.z.z.z.z.z.z.z.z.z.z.z.z.z.z.z.z.z.z.z.z.z.z.v.d.z     r e.v.z.z.z.z.z.z.z.z.z.z.z.z.B.",
"S.z.z.z.z.z.z.z.z.z.k.N     8 6.n.z.z.z.z.z.z.z.z.z.z.z.z.z.z.z.z.z.z.z.z.z.z.z.z.z.z.v.d.z     r e.v.z.z.z.z.z.z.z.z.z.z.z.z.B.",
"S.z.z.z.z.z.z.z.z.z.k.N     8 6.n.z.z.z.z.z.z.z.z.z.z.z.z.z.z.z.z.z.z.z.z.z.z.z.z.z.z.v.d.z     r e.v.z.z.z.z.z.z.z.z.z.z.z.z.B.",
"S.z.z.z.z.z.z.z.z.z.k.N     8 6.n.z.z.z.z.z.z.z.z.z.z.z.z.z.z.z.z.z.z.z.z.z.z.z.z.z.z.v.d.z     r e.v.z.z.z.z.z.z.z.z.z.z.z.z.B.",
"S.z.z.z.z.z.z.z.z.z.k.N     8 6.n.z.z.z.z.z.z.z.z.z.z.z.z.z.z.z.z.z.z.z.z.z.z.z.z.z.z.v.d.z     r e.v.z.z.z.z.z.z.z.z.z.z.z.z.B.",
"P.G.G.G.G.G.G.G.G.G.m.C     9 w.L.G.G.G.G.G.G.G.G.G.G.G.G.G.G.G.G.G.G.G.G.G.G.G.G.G.G.G.h.x     t u.J.G.G.G.G.G.G.G.G.G.G.G.G.A.",
"O...X.X.X.X.X.X.X.X.| j     3 P o.X.X.X.X.X.X.X.X.X.X.X.X.X.X.....X.X.X.X.X.X.X.X.X.X.X.` i     0 R o...X.X.X.X.X.X.X.X.X.X... .",
"% . . . . . . . . . .         . . . . . . . . . . . . . . . . . . . . . . . . . . . . . .         . . . . . . . . . . . . . . o ",
"O                                                                                                                               ",
"O                                                                                                                               ",
"Q ~ ~ ~ ~ ~ ~ ~ ~ ~ ~ ~ ~ ~ ~ ~ ~ ~ ~ ~ ~ ~ ~ ~ ~ ~ ~ ~ ~ Y p     e T ~ ~ ~ ~ ~ ~ ~ ~ ~ ~ ~ ~ ~ ~ ~ ~ ~ ~ ~ ~ ~ ~ ! ~ E s       ",
"P.G.G.G.G.G.G.G.G.G.G.G.G.G.G.G.G.G.G.G.G.G.G.G.G.G.G.G.G.j.b     g a.G.G.G.G.G.G.G.G.G.G.G.G.G.G.G.G.G.G.G.G.G.G.G.G.V.B       ",
"S.z.z.z.z.z.z.z.z.z.z.z.z.z.z.z.z.z.z.z.z.z.z.z.z.z.z.z.z.s.v     g i.v.z.z.z.z.z.z.z.z.z.z.z.z.z.z.z.z.z.z.z.z.z.z.z.j.M       ",
"S.z.z.z.z.z.z.z.z.z.z.z.z.z.z.z.z.z.z.z.z.z.z.z.z.z.z.z.z.s.v     g p.v.z.z.z.z.z.z.z.z.z.z.z.z.z.z.z.z.z.z.z.z.z.z.z.j.M       ",
"S.z.z.z.z.z.z.z.z.z.z.z.z.z.z.z.z.z.z.z.z.z.z.z.z.z.z.z.z.s.v     g p.v.z.z.z.z.z.z.z.z.z.z.z.z.z.z.z.z.z.z.z.z.z.z.z.j.M       ",
"S.z.z.z.z.z.z.z.z.z.z.z.z.z.z.z.z.z.z.z.z.z.z.z.z.z.z.z.z.s.v     g p.v.z.z.z.z.z.z.z.z.z.z.z.z.z.z.z.z.z.z.z.z.z.z.z.j.M       ",
"S.z.z.z.z.z.z.z.z.z.z.z.z.z.z.z.z.z.z.z.z.z.z.z.z.z.z.z.z.s.v     g p.v.z.z.z.z.z.z.z.z.z.z.z.z.z.z.z.z.z.z.z.z.z.z.z.j.M       ",
"S.z.z.z.z.z.z.z.z.z.z.z.z.z.z.z.z.z.z.z.z.z.z.z.z.z.z.z.z.s.v     g p.v.z.z.z.z.z.z.z.z.z.z.z.z.z.z.z.z.z.z.z.z.z.z.z.j.M       ",
"S.z.z.z.z.z.z.z.z.z.z.z.z.z.z.z.z.z.z.z.z.z.z.z.z.z.z.z.z.s.v     g p.v.z.z.z.z.z.z.z.z.z.z.z.z.z.z.z.z.z.z.z.z.z.z.z.j.M       ",
"S.z.z.z.z.z.z.z.z.z.z.z.z.z.z.z.z.z.z.z.z.z.z.z.z.z.z.z.z.s.v     g i.v.z.z.z.z.z.z.z.z.z.z.z.z.z.z.z.z.z.z.z.z.z.z.z.j.M       ",
"P.G.G.G.G.G.G.G.G.G.G.G.G.G.G.G.G.G.G.G.G.G.G.G.G.G.G.G.G.j.b     g a.G.G.G.G.G.G.G.G.G.G.G.G.G.G.G.G.G.G.G.G.G.G.G.G.V.B       ",
">.,.;.;.<.;.<.;.;.<.;.<.;.;.<.;.;.<.;.<.;.;.<.;.;.;.;.<.<.*.d     y @.<.;.<.;.;.<.;.;.<.;.<.;.;.<.;.<.;.;.<.;.;.<.;.;.-.l       ",
"2 : < < < < < < < < < < < < < < < < < < < < < < < < < < < < +     . ; < < < < < < < < < < < < < < < < < < < < < < < < < #       ",
"O                                                                                                                               ",
"X                                                                                                                               ",
"L H H H H H H H H H G a     , Z H H H H H H H H H H H H H H H H H H H H H H H H H H H H F e     5 D H H H H H H H H H H H H H G ",
"D.b.m.m.m.m.m.m.m.m.x.V     8 0.K.m.m.m.m.m.m.m.m.m.m.m.m.m.m.m.m.m.m.m.m.m.m.m.m.m.m.M.g.z     t y.N.m.m.m.m.m.m.m.m.m.m.m.m.Z.",
"S.z.z.z.z.z.z.z.z.z.k.N     8 6.n.z.z.z.z.z.z.z.z.z.z.z.z.z.z.z.z.z.z.z.z.z.z.z.z.z.z.v.d.z     r e.v.z.z.z.z.z.z.z.z.z.z.z.z.B.",
"S.z.z.z.z.z.z.z.z.z.k.N     8 6.n.z.z.z.z.z.z.z.z.z.z.z.z.z.z.z.z.z.z.z.z.z.z.z.z.z.z.v.d.z     r e.v.z.z.z.z.z.z.z.z.z.z.z.z.B.",
"S.z.z.z.z.z.z.z.z.z.k.N     8 6.n.z.z.z.z.z.z.z.z.z.z.z.z.z.z.z.z.z.z.z.z.z.z.z.z.z.z.v.d.z     r e.v.z.z.z.z.z.z.z.z.z.z.z.z.B.",
"S.z.z.z.z.z.z.z.z.z.k.N     8 6.n.z.z.z.z.z.z.z.z.z.z.z.z.z.z.z.z.z.z.z.z.z.z.z.z.z.z.v.d.z     r e.v.z.z.z.z.z.z.z.z.z.z.z.z.B.",
"S.z.z.z.z.z.z.z.z.z.k.N     8 6.n.z.z.z.z.z.z.z.z.z.z.z.z.z.z.z.z.z.z.z.z.z.z.z.z.z.z.v.d.z     r e.v.z.z.z.z.z.z.z.z.z.z.z.z.B.",
"S.z.z.z.z.z.z.z.z.z.k.N     8 6.n.z.z.z.z.z.z.z.z.z.z.z.z.z.z.z.z.z.z.z.z.z.z.z.z.z.z.v.d.z     r e.v.z.z.z.z.z.z.z.z.z.z.z.z.B.",
"S.z.z.z.z.z.z.z.z.z.k.N     8 6.n.z.z.z.z.z.z.z.z.z.z.z.z.z.z.z.z.z.z.z.z.z.z.z.z.z.z.v.d.z     r e.v.z.z.z.z.z.z.z.z.z.z.z.z.B.",
"S.z.z.z.z.z.z.z.z.z.k.N     8 6.n.z.z.z.z.z.z.z.z.z.z.z.z.z.z.z.z.z.z.z.z.z.z.z.z.z.z.v.d.z     r e.v.z.z.z.z.z.z.z.z.z.z.z.z.B.",
"F.n.n.n.n.n.n.n.n.n.c.C     8 q.J.n.n.n.n.n.n.n.n.n.n.n.n.n.n.n.n.n.n.n.n.n.n.n.n.n.n.G.f.z     r r.H.n.n.n.n.n.n.n.n.n.n.n.n.C.",
"4.6.8.8.8.8.8.8.8.8.1.n     5 +.w.8.8.8.8.8.8.8.8.8.8.8.8.8.8.8.8.8.8.8.8.8.8.8.8.8.8.6.2.h     w =.7.8.8.8.8.8.8.8.8.8.8.8.6.3.",
"q 6 6 6 6 6 6 6 6 6 6 >     . 4 6 6 6 6 6 6 6 6 6 6 6 6 6 6 6 6 6 6 6 6 6 6 6 6 6 6 6 6 6 $     # 5 6 6 6 6 6 6 6 6 6 6 6 6 6 8 ",
"O                                                                                                                               ",
"O                                                                                                                               "
};
